<svg width="191" height="44" viewBox="0 0 191 44" fill="none" xmlns="http://www.w3.org/2000/svg">
<g clip-path="url(#clip0_1_23811)">
<path d="M40.735 40.7206L40.1323 35.7306C40.1313 35.7223 40.1302 35.714 40.1288 35.7057C39.9633 34.6862 39.488 33.7423 38.7676 33.0022C38.0472 32.2621 37.1165 31.7615 36.1019 31.5684L29.9556 30.4123H29.9552L28.2906 30.0992C29.9038 29.7856 31.4919 29.3546 33.0423 28.8097C33.7346 28.5655 34.3207 28.0888 34.701 27.461C35.0813 26.8331 35.2322 26.0929 35.128 25.3662L34.169 18.7914H34.704C35.047 18.791 35.3758 18.6546 35.6183 18.4121C35.8609 18.1695 35.9973 17.8407 35.9976 17.4977V14.8712C35.9973 14.5282 35.8609 14.1994 35.6183 13.9569C35.3758 13.7143 35.047 13.5779 34.704 13.5775H33.6401C33.557 13.3792 33.4518 13.1909 33.3265 13.0161L32.7916 9.34827C32.4123 6.75116 31.1109 4.37732 29.1254 2.66084C27.1398 0.944359 24.6027 -7.16808e-05 21.978 0.00024422H21.4932C18.8319 0.0037571 16.2631 0.976805 14.2674 2.73733C12.2716 4.49785 10.9857 6.92522 10.6503 9.56526L10.1469 13.5775H9.09455C8.75155 13.5779 8.42271 13.7143 8.18017 13.9568C7.93763 14.1994 7.80121 14.5282 7.80085 14.8712V17.4977C7.80121 17.8407 7.93763 18.1696 8.18017 18.4121C8.42271 18.6546 8.75155 18.7911 9.09455 18.7914H9.49296L8.66194 25.4159C8.5752 26.131 8.73377 26.8544 9.1117 27.4676C9.48963 28.0809 10.0645 28.5477 10.7423 28.7916C12.3408 29.3569 13.9797 29.8005 15.6451 30.1188L14.2269 30.3976L14.2174 30.3995L8.14082 31.5945C7.19546 31.7818 6.32387 32.2369 5.62986 32.9056C4.93586 33.5743 4.44868 34.4284 4.22637 35.3661C4.22362 35.3774 4.22124 35.3887 4.21923 35.4001L3.29996 40.523C3.20462 40.9395 3.20437 41.3721 3.29925 41.7887C3.39412 42.2053 3.58168 42.5951 3.84797 42.9292C4.11425 43.2634 4.45243 43.5332 4.83734 43.7186C5.22226 43.904 5.64402 44.0003 6.07127 44.0002H37.9249C38.3352 44.0003 38.7406 43.9115 39.1134 43.74C39.4861 43.5685 39.8174 43.3184 40.0844 43.0068C40.3513 42.6953 40.5477 42.3296 40.66 41.935C40.7723 41.5403 40.7979 41.1261 40.735 40.7206ZM33.8605 14.8685L34.7087 14.8711L34.704 17.5024H33.8605V14.8685ZM33.0031 19.7298L33.8524 25.5524C33.914 25.9833 33.8242 26.4222 33.5985 26.7944C33.3728 27.1666 33.025 27.4491 32.6144 27.5937C30.8281 28.2217 28.9901 28.692 27.1217 28.9994V26.5142L27.5879 26.2225C28.2672 25.7994 28.8406 25.2262 29.2639 24.5469H29.3691C30.1133 24.5462 30.8268 24.2503 31.3531 23.7241C31.8794 23.198 32.1755 22.4846 32.1764 21.7404V20.2992C32.4832 20.1593 32.7631 19.9666 33.0031 19.7298ZM24.4017 26.6955C23.6502 27.1614 22.7835 27.4083 21.8993 27.4083C21.0151 27.4083 20.1485 27.1614 19.397 26.6955L18.0608 25.8595C18.0586 25.8581 18.0562 25.8568 18.054 25.8553L16.8938 25.1295C16.3242 24.7759 15.8546 24.2825 15.5297 23.6962C15.2047 23.1098 15.0352 22.45 15.0374 21.7796V13.0576C15.6709 12.9707 16.2771 12.7443 16.8126 12.3948C17.348 12.0453 17.7992 11.5813 18.1337 11.0364C18.5434 11.4414 18.9876 11.8101 19.4611 12.1381L19.5862 12.2233C22.5191 14.2111 25.6853 13.7478 28.7609 13.2207V21.7798C28.7616 22.2862 28.6651 22.7879 28.4768 23.2579H24.1552C24.0239 22.8864 23.7807 22.5646 23.4591 22.3368C23.1375 22.109 22.7533 21.9865 22.3592 21.986H21.2646C20.7597 21.9866 20.2756 22.1874 19.9186 22.5444C19.5616 22.9015 19.3608 23.3855 19.3602 23.8904V23.9145C19.3608 24.4194 19.5616 24.9034 19.9186 25.2604C20.2757 25.6175 20.7597 25.8183 21.2646 25.8189H22.3592C22.7533 25.8184 23.1375 25.6958 23.4591 25.4681C23.7807 25.2403 24.0239 24.9186 24.1552 24.547H27.6298C27.4116 24.7689 27.1681 24.9644 26.9043 25.1297L24.4017 26.6955ZM25.8326 27.3208V30.2554C25.8323 30.3287 25.8154 30.401 25.7831 30.4668C25.7509 30.5326 25.7041 30.5902 25.6464 30.6353L22.0061 33.4687L18.5223 30.6434C18.424 30.5642 18.361 30.4493 18.347 30.3239C18.3467 30.3192 18.3467 30.3144 18.3462 30.3098C18.3452 30.2966 18.344 30.2834 18.344 30.27V27.5574L18.7135 27.7886C19.6703 28.3817 20.7737 28.696 21.8994 28.696C23.0251 28.6959 24.1285 28.3816 25.0852 27.7884L25.8326 27.3208ZM22.9745 23.8904V23.9144C22.9743 24.0776 22.9094 24.234 22.7941 24.3493C22.6787 24.4647 22.5223 24.5295 22.3592 24.5297H21.2646C21.1015 24.5295 20.9451 24.4647 20.8297 24.3493C20.7143 24.234 20.6495 24.0776 20.6493 23.9144V23.8904C20.6495 23.7272 20.7143 23.5708 20.8297 23.4554C20.945 23.3401 21.1014 23.2752 21.2646 23.275H22.3592C22.5223 23.2752 22.6787 23.3401 22.7941 23.4554C22.9094 23.5708 22.9743 23.7272 22.9745 23.8904ZM29.8632 23.1736C29.9874 22.7194 30.0502 22.2506 30.05 21.7797V20.5568H30.8874V21.7404C30.8868 22.0561 30.7879 22.3638 30.6043 22.6207C30.4208 22.8776 30.1617 23.0709 29.8632 23.1737V23.1736ZM32.5714 14.6792V17.6897C32.5709 18.1081 32.4045 18.5092 32.1087 18.805C31.8129 19.1009 31.4118 19.2673 30.9934 19.2678H30.05V13.1012H30.9934C31.4118 13.1016 31.8129 13.2681 32.1087 13.5639C32.4045 13.8597 32.5709 14.2609 32.5714 14.6792ZM11.9292 9.7257C12.2252 7.3971 13.3594 5.2561 15.1198 3.70331C16.8801 2.15052 19.1459 1.29233 21.4933 1.28931H21.9781C24.2931 1.28897 26.5309 2.12193 28.2822 3.63586C30.0336 5.1498 31.1815 7.24354 31.516 9.53424L31.8683 11.9493C31.5856 11.8584 31.2905 11.8121 30.9935 11.8121H29.438C29.4348 11.812 29.4317 11.8123 29.4286 11.8121H29.4055L29.403 11.8123C29.3829 11.8123 29.3628 11.8134 29.3428 11.8154L29.3342 11.8163C29.3218 11.8177 29.3095 11.8185 29.2973 11.8206L28.8561 11.8963C25.7995 12.4229 22.9124 12.9202 20.3096 11.1562L20.1923 11.0763C19.5436 10.6269 18.9599 10.0905 18.4574 9.48216C18.3838 9.39307 18.2877 9.32539 18.179 9.28619C18.0704 9.24698 17.9532 9.2377 17.8397 9.25931C17.7262 9.28092 17.6207 9.33262 17.534 9.40902C17.4474 9.48541 17.3829 9.58369 17.3472 9.69356C17.1465 10.3152 16.752 10.8562 16.2216 11.2374C15.6912 11.6186 15.0527 11.82 14.3996 11.8122L14.3967 11.8123L14.3929 11.8121H12.8051C12.402 11.8122 12.0035 11.8979 11.6361 12.0635L11.9292 9.7257ZM11.2271 14.6791C11.2276 14.2608 11.394 13.8598 11.6898 13.564C11.9856 13.2681 12.3867 13.1017 12.805 13.1012H13.7483V19.2678H12.805C12.3866 19.2673 11.9855 19.1009 11.6897 18.805C11.3939 18.5092 11.2275 18.1081 11.227 17.6897L11.2271 14.6791ZM9.08983 17.4977L9.09447 14.8666H9.93794V17.5004L9.08983 17.4977ZM11.1723 27.5765C10.7709 27.4318 10.4305 27.1551 10.2068 26.7918C9.98305 26.4284 9.88931 25.9999 9.94086 25.5764L10.6882 19.619C10.9561 19.9143 11.2828 20.1503 11.6474 20.3119C12.0119 20.4734 12.4063 20.5568 12.805 20.5568H13.7483V21.7797C13.7455 22.6688 13.9702 23.5438 14.4012 24.3214C14.8321 25.0991 15.4549 25.7535 16.2103 26.2224L17.055 26.751V29.054C15.0522 28.7467 13.0826 28.2521 11.1723 27.5765ZM17.2682 31.1133C17.3793 31.3177 17.5295 31.4983 17.7103 31.6447L21.2741 34.5347C21.4772 34.7009 21.7308 34.7928 21.9931 34.7954C22.2554 34.7979 22.5108 34.7109 22.717 34.5488L26.4379 31.6528C26.6162 31.5136 26.7661 31.3413 26.8794 31.1455L29.1116 31.5653C29.0286 31.8177 28.873 32.04 28.6642 32.2043L22.033 37.3653C22.0059 37.3865 21.9724 37.3978 21.9379 37.3975C21.9035 37.3971 21.8702 37.3851 21.8435 37.3633L15.491 32.2112C15.2804 32.0405 15.1271 31.8095 15.0517 31.5492L17.2682 31.1133ZM39.1082 42.165C38.9623 42.3364 38.781 42.474 38.5766 42.5683C38.3723 42.6626 38.1499 42.7113 37.9249 42.7112H6.07127C5.8369 42.7112 5.60557 42.6582 5.39458 42.5562C5.1836 42.4541 4.99843 42.3057 4.85294 42.1219C4.70746 41.9382 4.60542 41.7239 4.55448 41.4952C4.50353 41.2664 4.505 41.0291 4.55877 40.801C4.56141 40.7897 4.56373 40.7783 4.56573 40.7668L5.48475 35.6456C5.65239 34.9523 6.01502 34.3214 6.52979 33.8277C7.04455 33.3339 7.68992 32.9979 8.38961 32.8592L13.7827 31.7988C13.9184 32.3557 14.2335 32.8526 14.6795 33.2128L21.0319 38.3647C21.2844 38.5709 21.5996 38.6849 21.9256 38.6881C22.2516 38.6912 22.5689 38.5833 22.8254 38.3821L29.4567 33.2211C29.9151 32.8653 30.2422 32.3672 30.3865 31.8051L35.8632 32.8352C36.6153 32.9783 37.3053 33.3488 37.8402 33.8965C38.375 34.4442 38.7289 35.1428 38.8541 35.8981L39.4565 40.8867C39.4576 40.8949 39.4588 40.9031 39.4601 40.9113C39.4957 41.1333 39.4827 41.3604 39.422 41.5769C39.3612 41.7934 39.2541 41.994 39.1081 42.165H39.1082Z" fill="#F4F4F4"/>
</g>
<path d="M57.7696 15.175C58.7296 14.345 59.4846 13.665 60.0346 13.135C60.5946 12.595 61.0596 12.035 61.4296 11.455C61.7996 10.875 61.9846 10.295 61.9846 9.715C61.9846 9.115 61.8396 8.645 61.5496 8.305C61.2696 7.965 60.8246 7.795 60.2146 7.795C59.6246 7.795 59.1646 7.985 58.8346 8.365C58.5146 8.735 58.3446 9.235 58.3246 9.865H56.6746C56.7046 8.725 57.0446 7.855 57.6946 7.255C58.3546 6.645 59.1896 6.34 60.1996 6.34C61.2896 6.34 62.1396 6.64 62.7496 7.24C63.3696 7.84 63.6796 8.64 63.6796 9.64C63.6796 10.36 63.4946 11.055 63.1246 11.725C62.7646 12.385 62.3296 12.98 61.8196 13.51C61.3196 14.03 60.6796 14.635 59.8996 15.325L59.2246 15.925H63.9796V17.35H56.6896V16.105L57.7696 15.175ZM65.2718 15.22V13.93L70.3118 6.7H72.3818V13.735H73.7768V15.22H72.3818V17.5H70.7018V15.22H65.2718ZM70.7768 8.44L67.2368 13.735H70.7768V8.44ZM84.1002 12.295L87.3402 17.5H85.4202L83.0652 13.72L80.8602 17.5H78.9552L82.1952 12.295L78.9402 7.075H80.8602L83.2302 10.885L85.4502 7.075H87.3552L84.1002 12.295ZM99.819 7.885L95.649 17.5H93.924L98.139 8.065H92.589V6.61H99.819V7.885ZM104.834 12.265C104.834 11.245 105.069 10.33 105.539 9.52C106.019 8.71 106.664 8.08 107.474 7.63C108.294 7.17 109.189 6.94 110.159 6.94C111.269 6.94 112.254 7.215 113.114 7.765C113.984 8.305 114.614 9.075 115.004 10.075H112.949C112.679 9.525 112.304 9.115 111.824 8.845C111.344 8.575 110.789 8.44 110.159 8.44C109.469 8.44 108.854 8.595 108.314 8.905C107.774 9.215 107.349 9.66 107.039 10.24C106.739 10.82 106.589 11.495 106.589 12.265C106.589 13.035 106.739 13.71 107.039 14.29C107.349 14.87 107.774 15.32 108.314 15.64C108.854 15.95 109.469 16.105 110.159 16.105C110.789 16.105 111.344 15.97 111.824 15.7C112.304 15.43 112.679 15.02 112.949 14.47H115.004C114.614 15.47 113.984 16.24 113.114 16.78C112.254 17.32 111.269 17.59 110.159 17.59C109.179 17.59 108.284 17.365 107.474 16.915C106.664 16.455 106.019 15.82 105.539 15.01C105.069 14.2 104.834 13.285 104.834 12.265ZM124.491 9.235V17.5H122.781V16.525C122.511 16.865 122.156 17.135 121.716 17.335C121.286 17.525 120.826 17.62 120.336 17.62C119.686 17.62 119.101 17.485 118.581 17.215C118.071 16.945 117.666 16.545 117.366 16.015C117.076 15.485 116.931 14.845 116.931 14.095V9.235H118.626V13.84C118.626 14.58 118.811 15.15 119.181 15.55C119.551 15.94 120.056 16.135 120.696 16.135C121.336 16.135 121.841 15.94 122.211 15.55C122.591 15.15 122.781 14.58 122.781 13.84V9.235H124.491ZM129.747 17.635C129.097 17.635 128.512 17.52 127.992 17.29C127.482 17.05 127.077 16.73 126.777 16.33C126.477 15.92 126.317 15.465 126.297 14.965H128.067C128.097 15.315 128.262 15.61 128.562 15.85C128.872 16.08 129.257 16.195 129.717 16.195C130.197 16.195 130.567 16.105 130.827 15.925C131.097 15.735 131.232 15.495 131.232 15.205C131.232 14.895 131.082 14.665 130.782 14.515C130.492 14.365 130.027 14.2 129.387 14.02C128.767 13.85 128.262 13.685 127.872 13.525C127.482 13.365 127.142 13.12 126.852 12.79C126.572 12.46 126.432 12.025 126.432 11.485C126.432 11.045 126.562 10.645 126.822 10.285C127.082 9.915 127.452 9.625 127.932 9.415C128.422 9.205 128.982 9.1 129.612 9.1C130.552 9.1 131.307 9.34 131.877 9.82C132.457 10.29 132.767 10.935 132.807 11.755H131.097C131.067 11.385 130.917 11.09 130.647 10.87C130.377 10.65 130.012 10.54 129.552 10.54C129.102 10.54 128.757 10.625 128.517 10.795C128.277 10.965 128.157 11.19 128.157 11.47C128.157 11.69 128.237 11.875 128.397 12.025C128.557 12.175 128.752 12.295 128.982 12.385C129.212 12.465 129.552 12.57 130.002 12.7C130.602 12.86 131.092 13.025 131.472 13.195C131.862 13.355 132.197 13.595 132.477 13.915C132.757 14.235 132.902 14.66 132.912 15.19C132.912 15.66 132.782 16.08 132.522 16.45C132.262 16.82 131.892 17.11 131.412 17.32C130.942 17.53 130.387 17.635 129.747 17.635ZM136.755 10.63V15.205C136.755 15.515 136.825 15.74 136.965 15.88C137.115 16.01 137.365 16.075 137.715 16.075H138.765V17.5H137.415C136.645 17.5 136.055 17.32 135.645 16.96C135.235 16.6 135.03 16.015 135.03 15.205V10.63H134.055V9.235H135.03V7.18H136.755V9.235H138.765V10.63H136.755ZM143.926 17.635C143.146 17.635 142.441 17.46 141.811 17.11C141.181 16.75 140.686 16.25 140.326 15.61C139.966 14.96 139.786 14.21 139.786 13.36C139.786 12.52 139.971 11.775 140.341 11.125C140.711 10.475 141.216 9.975 141.856 9.625C142.496 9.275 143.211 9.1 144.001 9.1C144.791 9.1 145.506 9.275 146.146 9.625C146.786 9.975 147.291 10.475 147.661 11.125C148.031 11.775 148.216 12.52 148.216 13.36C148.216 14.2 148.026 14.945 147.646 15.595C147.266 16.245 146.746 16.75 146.086 17.11C145.436 17.46 144.716 17.635 143.926 17.635ZM143.926 16.15C144.366 16.15 144.776 16.045 145.156 15.835C145.546 15.625 145.861 15.31 146.101 14.89C146.341 14.47 146.461 13.96 146.461 13.36C146.461 12.76 146.346 12.255 146.116 11.845C145.886 11.425 145.581 11.11 145.201 10.9C144.821 10.69 144.411 10.585 143.971 10.585C143.531 10.585 143.121 10.69 142.741 10.9C142.371 11.11 142.076 11.425 141.856 11.845C141.636 12.255 141.526 12.76 141.526 13.36C141.526 14.25 141.751 14.94 142.201 15.43C142.661 15.91 143.236 16.15 143.926 16.15ZM159.911 9.1C160.561 9.1 161.141 9.235 161.651 9.505C162.171 9.775 162.576 10.175 162.866 10.705C163.166 11.235 163.316 11.875 163.316 12.625V17.5H161.621V12.88C161.621 12.14 161.436 11.575 161.066 11.185C160.696 10.785 160.191 10.585 159.551 10.585C158.911 10.585 158.401 10.785 158.021 11.185C157.651 11.575 157.466 12.14 157.466 12.88V17.5H155.771V12.88C155.771 12.14 155.586 11.575 155.216 11.185C154.846 10.785 154.341 10.585 153.701 10.585C153.061 10.585 152.551 10.785 152.171 11.185C151.801 11.575 151.616 12.14 151.616 12.88V17.5H149.906V9.235H151.616V10.18C151.896 9.84 152.251 9.575 152.681 9.385C153.111 9.195 153.571 9.1 154.061 9.1C154.721 9.1 155.311 9.24 155.831 9.52C156.351 9.8 156.751 10.205 157.031 10.735C157.281 10.235 157.671 9.84 158.201 9.55C158.731 9.25 159.301 9.1 159.911 9.1ZM173.067 13.165C173.067 13.475 173.047 13.755 173.007 14.005H166.692C166.742 14.665 166.987 15.195 167.427 15.595C167.867 15.995 168.407 16.195 169.047 16.195C169.967 16.195 170.617 15.81 170.997 15.04H172.842C172.592 15.8 172.137 16.425 171.477 16.915C170.827 17.395 170.017 17.635 169.047 17.635C168.257 17.635 167.547 17.46 166.917 17.11C166.297 16.75 165.807 16.25 165.447 15.61C165.097 14.96 164.922 14.21 164.922 13.36C164.922 12.51 165.092 11.765 165.432 11.125C165.782 10.475 166.267 9.975 166.887 9.625C167.517 9.275 168.237 9.1 169.047 9.1C169.827 9.1 170.522 9.27 171.132 9.61C171.742 9.95 172.217 10.43 172.557 11.05C172.897 11.66 173.067 12.365 173.067 13.165ZM171.282 12.625C171.272 11.995 171.047 11.49 170.607 11.11C170.167 10.73 169.622 10.54 168.972 10.54C168.382 10.54 167.877 10.73 167.457 11.11C167.037 11.48 166.787 11.985 166.707 12.625H171.282ZM176.46 10.435C176.71 10.015 177.04 9.69 177.45 9.46C177.87 9.22 178.365 9.1 178.935 9.1V10.87H178.5C177.83 10.87 177.32 11.04 176.97 11.38C176.63 11.72 176.46 12.31 176.46 13.15V17.5H174.75V9.235H176.46V10.435ZM60.4846 36.605C59.7846 36.605 59.1546 36.485 58.5946 36.245C58.0346 35.995 57.5946 35.645 57.2746 35.195C56.9546 34.745 56.7946 34.22 56.7946 33.62H58.6246C58.6646 34.07 58.8396 34.44 59.1496 34.73C59.4696 35.02 59.9146 35.165 60.4846 35.165C61.0746 35.165 61.5346 35.025 61.8646 34.745C62.1946 34.455 62.3596 34.085 62.3596 33.635C62.3596 33.285 62.2546 33 62.0446 32.78C61.8446 32.56 61.5896 32.39 61.2796 32.27C60.9796 32.15 60.5596 32.02 60.0196 31.88C59.3396 31.7 58.7846 31.52 58.3546 31.34C57.9346 31.15 57.5746 30.86 57.2746 30.47C56.9746 30.08 56.8246 29.56 56.8246 28.91C56.8246 28.31 56.9746 27.785 57.2746 27.335C57.5746 26.885 57.9946 26.54 58.5346 26.3C59.0746 26.06 59.6996 25.94 60.4096 25.94C61.4196 25.94 62.2446 26.195 62.8846 26.705C63.5346 27.205 63.8946 27.895 63.9646 28.775H62.0746C62.0446 28.395 61.8646 28.07 61.5346 27.8C61.2046 27.53 60.7696 27.395 60.2296 27.395C59.7396 27.395 59.3396 27.52 59.0296 27.77C58.7196 28.02 58.5646 28.38 58.5646 28.85C58.5646 29.17 58.6596 29.435 58.8496 29.645C59.0496 29.845 59.2996 30.005 59.5996 30.125C59.8996 30.245 60.3096 30.375 60.8296 30.515C61.5196 30.705 62.0796 30.895 62.5096 31.085C62.9496 31.275 63.3196 31.57 63.6196 31.97C63.9296 32.36 64.0846 32.885 64.0846 33.545C64.0846 34.075 63.9396 34.575 63.6496 35.045C63.3696 35.515 62.9546 35.895 62.4046 36.185C61.8646 36.465 61.2246 36.605 60.4846 36.605ZM73.5873 28.235V36.5H71.8773V35.525C71.6073 35.865 71.2523 36.135 70.8123 36.335C70.3823 36.525 69.9223 36.62 69.4323 36.62C68.7823 36.62 68.1973 36.485 67.6773 36.215C67.1673 35.945 66.7623 35.545 66.4623 35.015C66.1723 34.485 66.0273 33.845 66.0273 33.095V28.235H67.7223V32.84C67.7223 33.58 67.9073 34.15 68.2773 34.55C68.6473 34.94 69.1523 35.135 69.7923 35.135C70.4323 35.135 70.9373 34.94 71.3073 34.55C71.6873 34.15 71.8773 33.58 71.8773 32.84V28.235H73.5873ZM77.5535 29.45C77.8435 29.07 78.2385 28.75 78.7385 28.49C79.2385 28.23 79.8035 28.1 80.4335 28.1C81.1535 28.1 81.8085 28.28 82.3985 28.64C82.9985 28.99 83.4685 29.485 83.8085 30.125C84.1485 30.765 84.3185 31.5 84.3185 32.33C84.3185 33.16 84.1485 33.905 83.8085 34.565C83.4685 35.215 82.9985 35.725 82.3985 36.095C81.8085 36.455 81.1535 36.635 80.4335 36.635C79.8035 36.635 79.2435 36.51 78.7535 36.26C78.2635 36 77.8635 35.68 77.5535 35.3V40.43H75.8435V28.235H77.5535V29.45ZM82.5785 32.33C82.5785 31.76 82.4585 31.27 82.2185 30.86C81.9885 30.44 81.6785 30.125 81.2885 29.915C80.9085 29.695 80.4985 29.585 80.0585 29.585C79.6285 29.585 79.2185 29.695 78.8285 29.915C78.4485 30.135 78.1385 30.455 77.8985 30.875C77.6685 31.295 77.5535 31.79 77.5535 32.36C77.5535 32.93 77.6685 33.43 77.8985 33.86C78.1385 34.28 78.4485 34.6 78.8285 34.82C79.2185 35.04 79.6285 35.15 80.0585 35.15C80.4985 35.15 80.9085 35.04 81.2885 34.82C81.6785 34.59 81.9885 34.26 82.2185 33.83C82.4585 33.4 82.5785 32.9 82.5785 32.33ZM87.7195 29.45C88.0095 29.07 88.4045 28.75 88.9045 28.49C89.4045 28.23 89.9695 28.1 90.5995 28.1C91.3195 28.1 91.9745 28.28 92.5645 28.64C93.1645 28.99 93.6345 29.485 93.9745 30.125C94.3145 30.765 94.4845 31.5 94.4845 32.33C94.4845 33.16 94.3145 33.905 93.9745 34.565C93.6345 35.215 93.1645 35.725 92.5645 36.095C91.9745 36.455 91.3195 36.635 90.5995 36.635C89.9695 36.635 89.4095 36.51 88.9195 36.26C88.4295 36 88.0295 35.68 87.7195 35.3V40.43H86.0095V28.235H87.7195V29.45ZM92.7445 32.33C92.7445 31.76 92.6245 31.27 92.3845 30.86C92.1545 30.44 91.8445 30.125 91.4545 29.915C91.0745 29.695 90.6645 29.585 90.2245 29.585C89.7945 29.585 89.3845 29.695 88.9945 29.915C88.6145 30.135 88.3045 30.455 88.0645 30.875C87.8345 31.295 87.7195 31.79 87.7195 32.36C87.7195 32.93 87.8345 33.43 88.0645 33.86C88.3045 34.28 88.6145 34.6 88.9945 34.82C89.3845 35.04 89.7945 35.15 90.2245 35.15C90.6645 35.15 91.0745 35.04 91.4545 34.82C91.8445 34.59 92.1545 34.26 92.3845 33.83C92.6245 33.4 92.7445 32.9 92.7445 32.33ZM99.7605 36.635C98.9805 36.635 98.2755 36.46 97.6455 36.11C97.0155 35.75 96.5205 35.25 96.1605 34.61C95.8005 33.96 95.6205 33.21 95.6205 32.36C95.6205 31.52 95.8055 30.775 96.1755 30.125C96.5455 29.475 97.0505 28.975 97.6905 28.625C98.3305 28.275 99.0455 28.1 99.8355 28.1C100.626 28.1 101.341 28.275 101.981 28.625C102.621 28.975 103.126 29.475 103.496 30.125C103.866 30.775 104.051 31.52 104.051 32.36C104.051 33.2 103.861 33.945 103.481 34.595C103.101 35.245 102.581 35.75 101.921 36.11C101.271 36.46 100.551 36.635 99.7605 36.635ZM99.7605 35.15C100.201 35.15 100.611 35.045 100.991 34.835C101.381 34.625 101.696 34.31 101.936 33.89C102.176 33.47 102.296 32.96 102.296 32.36C102.296 31.76 102.181 31.255 101.951 30.845C101.721 30.425 101.416 30.11 101.036 29.9C100.656 29.69 100.246 29.585 99.8055 29.585C99.3655 29.585 98.9555 29.69 98.5755 29.9C98.2055 30.11 97.9105 30.425 97.6905 30.845C97.4705 31.255 97.3605 31.76 97.3605 32.36C97.3605 33.25 97.5855 33.94 98.0355 34.43C98.4955 34.91 99.0705 35.15 99.7605 35.15ZM107.451 29.435C107.701 29.015 108.031 28.69 108.441 28.46C108.861 28.22 109.356 28.1 109.926 28.1V29.87H109.491C108.821 29.87 108.311 30.04 107.961 30.38C107.621 30.72 107.451 31.31 107.451 32.15V36.5H105.741V28.235H107.451V29.435ZM113.493 29.63V34.205C113.493 34.515 113.563 34.74 113.703 34.88C113.853 35.01 114.103 35.075 114.453 35.075H115.503V36.5H114.153C113.383 36.5 112.793 36.32 112.383 35.96C111.973 35.6 111.768 35.015 111.768 34.205V29.63H110.793V28.235H111.768V26.18H113.493V28.235H115.503V29.63H113.493Z" fill="#F4F4F4"/>
<defs>
<clipPath id="clip0_1_23811">
<rect width="44" height="44" fill="white"/>
</clipPath>
</defs>
</svg>
