<svg width="35" height="34" viewBox="0 0 35 34" fill="none" xmlns="http://www.w3.org/2000/svg">
<path d="M7.9998 14.2293C9.94712 14.2293 11.5257 12.6507 11.5257 10.7034C11.5257 8.7561 9.94712 7.17749 7.9998 7.17749C6.05249 7.17749 4.47388 8.7561 4.47388 10.7034C4.47388 12.6507 6.05249 14.2293 7.9998 14.2293Z" stroke="#FCFCFC" stroke-width="0.752353" stroke-linecap="round" stroke-linejoin="round"/>
<path d="M27.979 14.2293C29.9264 14.2293 31.505 12.6507 31.505 10.7034C31.505 8.7561 29.9264 7.17749 27.979 7.17749C26.0317 7.17749 24.4531 8.7561 24.4531 10.7034C24.4531 12.6507 26.0317 14.2293 27.979 14.2293Z" stroke="#FCFCFC" stroke-width="0.752353" stroke-linecap="round" stroke-linejoin="round"/>
<path d="M6.87222 27.1572V30.9592C6.87222 31.6139 6.3457 32.1415 5.69108 32.1415C5.53569 32.142 5.38175 32.1117 5.23809 32.0524C5.09444 31.9932 4.96392 31.9062 4.85404 31.7963C4.74416 31.6864 4.65707 31.5559 4.59781 31.4122C4.53856 31.2686 4.50833 31.1146 4.50879 30.9592V27.1572M11.538 27.1572V30.9592C11.538 31.6139 11.0115 32.1415 10.3569 32.1415C10.2016 32.1418 10.0478 32.1115 9.90426 32.0521C9.76074 31.9928 9.63032 31.9057 9.52056 31.7958C9.41081 31.686 9.32387 31.5555 9.2647 31.4119C9.20552 31.2684 9.17528 31.1145 9.17575 30.9592V27.1572" stroke="#FCFCFC" stroke-width="0.752164" stroke-linecap="round" stroke-linejoin="round"/>
<path d="M27.9809 28.3419V31.5293C27.9809 32.1839 27.4543 32.7104 26.7997 32.7104C26.6444 32.7109 26.4906 32.6806 26.347 32.6214C26.2034 32.5623 26.073 32.4753 25.9631 32.3655C25.8532 32.2557 25.7661 32.1254 25.7068 31.9819C25.6475 31.8384 25.6171 31.6845 25.6174 31.5293V28.3419M30.3654 28.3231V31.5105C30.3654 32.1651 29.8378 32.6916 29.1832 32.6916C29.028 32.6919 28.8743 32.6615 28.7308 32.6023C28.5874 32.543 28.457 32.456 28.3473 32.3463C28.2375 32.2365 28.1506 32.1062 28.0913 31.9628C28.0321 31.8194 28.0017 31.6657 28.002 31.5105V28.3231" stroke="#FCFCFC" stroke-width="0.752164" stroke-linecap="round" stroke-linejoin="round"/>
<path d="M15.9579 0.729236C14.4231 0.729236 13.1785 1.79285 13.1785 3.72849C13.1785 5.66414 15.7722 7.52812 17.997 9.52723C20.2206 7.52812 22.8273 5.68765 22.8273 3.72849C22.8273 1.76934 21.5815 0.728088 20.0467 0.728088C19.2381 0.728088 18.5047 1.33334 17.997 1.92802C17.4893 1.33687 16.7653 0.729236 15.9579 0.729236Z" stroke="#FCFCFC" stroke-width="0.752164" stroke-linecap="round" stroke-linejoin="round"/>
<path d="M22.1035 18.0291V22.0273C22.1035 22.2647 22.2798 22.4562 22.4972 22.4562H24.0603C24.2777 22.4562 24.454 22.2647 24.454 22.0273V15.5093" stroke="#FCFCFC" stroke-width="0.752164" stroke-linecap="round" stroke-linejoin="round"/>
<path d="M22.1128 18.0902C22.1761 17.3573 22.5119 16.6749 23.0539 16.1776C23.596 15.6804 24.3048 15.4046 25.0403 15.4047" stroke="#FCFCFC" stroke-width="0.751819" stroke-linecap="round" stroke-linejoin="round"/>
<path d="M33.8561 18.0562V22.0273C33.8561 22.2647 33.6798 22.4563 33.4612 22.4563H31.8981C31.6807 22.4563 31.5056 22.2647 31.5056 22.0273V15.5552" stroke="#FCFCFC" stroke-width="0.752164" stroke-linecap="round" stroke-linejoin="round"/>
<path d="M33.8443 18.0902C33.7811 17.3573 33.4453 16.6749 32.9032 16.1776C32.3612 15.6804 31.6523 15.4046 30.9167 15.4047" stroke="#FCFCFC" stroke-width="0.751819" stroke-linecap="round" stroke-linejoin="round"/>
<path d="M24.4517 15.4859V27.1573C24.4517 27.8119 24.9723 28.3325 25.6269 28.3325H30.3279C30.4827 28.334 30.6361 28.3045 30.7794 28.246C30.9226 28.1874 31.0527 28.1009 31.1621 27.9915C31.2715 27.882 31.3581 27.7519 31.4166 27.6087C31.4752 27.4655 31.5046 27.312 31.5032 27.1573L31.4115 15.594M30.932 15.4059H25.0229M24.454 23.6751H31.6466M27.9857 27.8824V26.5991" stroke="#FCFCFC" stroke-width="0.752164"/>
<path d="M6.23742 15.4047C2.13343 25.9726 6.23977 15.4047 2.12402 25.982C2.12402 26.6366 2.59178 27.1572 3.18881 27.1572H12.813C13.4088 27.1572 14.0634 26.6754 13.8777 25.982C9.78079 15.4481 13.9142 25.982 9.76434 15.4047H6.23742V15.4047Z" stroke="#FCFCFC" stroke-width="0.752164" stroke-linecap="round" stroke-linejoin="round"/>
<path d="M2.71064 14.2294C1.73697 14.2294 0.947651 13.4401 0.947651 12.4664C0.947651 11.4927 1.73697 10.7034 2.71064 10.7034C3.68431 10.7034 4.47363 11.4927 4.47363 12.4664C4.47363 13.4401 3.68431 14.2294 2.71064 14.2294Z" stroke="#FCFCFC" stroke-width="0.752132"/>
</svg>
