<svg width="131" height="44" viewBox="0 0 131 44" fill="none" xmlns="http://www.w3.org/2000/svg">
<g clip-path="url(#clip0_1_23845)">
<path d="M40.8981 5.3111C40.8981 5.14016 40.8253 4.97622 40.6958 4.85534C40.5663 4.73447 40.3907 4.66657 40.2075 4.66657H35.1433C34.9602 4.66657 34.7845 4.73447 34.655 4.85534C34.5255 4.97622 34.4528 5.14016 34.4528 5.3111C34.4528 5.48204 34.5255 5.64598 34.655 5.76685C34.7845 5.88772 34.9602 5.95563 35.1433 5.95563H36.0641C36.4923 5.95614 36.9099 6.0803 37.2596 6.31109C37.6092 6.54189 37.8738 6.868 38.017 7.24469H35.1433C34.9602 7.24469 34.7845 7.3126 34.655 7.43347C34.5255 7.55434 34.4528 7.71828 34.4528 7.88922C34.4528 8.06016 34.5255 8.2241 34.655 8.34497C34.7845 8.46585 34.9602 8.53375 35.1433 8.53375H38.017C37.8738 8.91044 37.6092 9.23654 37.2596 9.46733C36.9099 9.69812 36.4923 9.8223 36.0641 9.82282H35.1433C35.0081 9.82281 34.8758 9.85987 34.763 9.92938C34.6501 9.9989 34.5616 10.0978 34.5084 10.2139C34.4552 10.3299 34.4397 10.458 34.4638 10.5822C34.4879 10.7064 34.5505 10.8212 34.6439 10.9125L38.327 14.5116C38.4535 14.6352 38.6274 14.7068 38.8106 14.7108C38.9937 14.7147 39.171 14.6505 39.3034 14.5325C39.4359 14.4144 39.5126 14.252 39.5168 14.0811C39.521 13.9102 39.4523 13.7447 39.3258 13.6211L36.7015 11.0568C37.3754 10.9373 37.9961 10.6337 38.4848 10.1845C38.9736 9.73528 39.3083 9.16071 39.4467 8.53367H40.2075C40.3907 8.53367 40.5663 8.46576 40.6958 8.34489C40.8253 8.22402 40.8981 8.06008 40.8981 7.88914C40.8981 7.7182 40.8253 7.55426 40.6958 7.43338C40.5663 7.31251 40.3907 7.2446 40.2075 7.2446H39.4475C39.3451 6.77703 39.1323 6.33665 38.8245 5.95554H40.2075C40.3907 5.95554 40.5663 5.88764 40.6958 5.76676C40.8253 5.64589 40.8981 5.48204 40.8981 5.3111ZM24.5546 21.6337V17.963C24.5546 17.792 24.4818 17.6281 24.3523 17.5072C24.2228 17.3864 24.0472 17.3185 23.864 17.3185C23.6809 17.3185 23.5052 17.3864 23.3757 17.5072C23.2462 17.6281 23.1735 17.792 23.1735 17.963V21.6218L20.1424 20.5371C19.9719 20.4779 19.7832 20.4839 19.6174 20.5538C19.4516 20.6237 19.3221 20.7519 19.2569 20.9104C19.1918 21.069 19.1963 21.2451 19.2695 21.4006C19.3428 21.556 19.4788 21.6782 19.648 21.7406L22.7631 22.8555L20.5185 25.6509C20.4086 25.7877 20.3615 25.9596 20.3874 26.1288C20.4134 26.2981 20.5103 26.4507 20.6569 26.5533C20.8035 26.6558 20.9877 26.6998 21.169 26.6755C21.3503 26.6513 21.5139 26.5609 21.6237 26.4241L23.8781 23.6165L26.262 26.4367C26.3754 26.5709 26.5413 26.6575 26.7232 26.6776C26.9051 26.6976 27.0881 26.6494 27.2319 26.5435C27.3757 26.4376 27.4685 26.2828 27.49 26.113C27.5115 25.9432 27.4598 25.7725 27.3463 25.6382L24.9947 22.8562L28.2195 21.7433C28.3889 21.6824 28.5258 21.5617 28.6006 21.4073C28.6754 21.2529 28.682 21.0772 28.619 20.9183C28.5561 20.7594 28.4286 20.63 28.2642 20.5581C28.0998 20.4863 27.9117 20.4777 27.7406 20.5343L24.5546 21.6337ZM37.6754 0.00024418C36.1713 0.000262219 34.6872 0.322701 33.3377 0.942698C31.9882 1.56269 30.8092 2.46368 29.8918 3.57619C27.9068 2.66716 26.0583 1.51885 24.3936 0.16069C24.2629 0.0534896 24.0937 -0.00372688 23.9198 0.00047935C23.7459 0.00468558 23.58 0.0700046 23.4555 0.183377C21.8068 1.67463 19.9167 2.91425 17.8548 3.85669C13.6274 5.80592 9.41328 6.26286 6.62227 6.30299C6.44099 6.3056 6.26809 6.37465 6.14089 6.49522C6.01368 6.6158 5.94239 6.77822 5.94238 6.94743V19.9721C5.94238 24.929 7.63649 29.7907 10.8417 34.0318C13.9406 38.1322 18.3652 41.5569 23.6371 43.936C23.7308 43.9783 23.8336 44.0003 23.9377 44.0003C24.0418 44.0003 24.1446 43.9783 24.2383 43.936C29.5103 41.5569 33.9348 38.1322 37.0337 34.0318C40.2389 29.7908 41.9331 24.929 41.9331 19.9721V17.4507C43.942 16.5502 45.5636 15.0396 46.5322 13.1662C47.5007 11.2929 47.7587 9.16808 47.2638 7.13998C46.769 5.11189 45.5507 3.30083 43.8086 2.00363C42.0665 0.706439 39.904 5.18624e-05 37.6754 0.00024418ZM40.5519 19.9721C40.5519 24.6615 38.945 29.2663 35.905 33.2888C32.9996 37.1332 28.8668 40.3608 23.9376 42.6381C19.0084 40.3608 14.8756 37.1332 11.9702 33.2888C8.93025 29.2664 7.32343 24.6615 7.32343 19.9721V7.57478C10.237 7.46925 14.3406 6.91495 18.4666 5.01246C20.4675 4.09629 22.3177 2.9176 23.9608 1.51223C25.545 2.74272 27.2762 3.79819 29.1201 4.65763C28.7387 5.28342 28.4381 5.94914 28.2244 6.64089C26.9074 6.03363 25.6407 5.33554 24.435 4.55244C24.3157 4.47472 24.1731 4.43416 24.0276 4.43655C23.8822 4.43894 23.7412 4.48416 23.6249 4.56576C22.3271 5.47445 20.9417 6.26877 19.4866 6.9385C16.5742 8.26676 13.4454 9.13353 10.2282 9.5033C10.0616 9.5232 9.90848 9.5991 9.7975 9.71679C9.68652 9.83449 9.62531 9.9859 9.62533 10.1427V19.9721C9.62533 24.2154 11.0868 28.3921 13.8517 32.0508C16.2524 35.2279 19.6244 37.9939 23.6031 40.0499C23.7055 40.1028 23.8206 40.1305 23.9376 40.1305C24.0546 40.1305 24.1697 40.1028 24.2721 40.0499C28.2507 37.9939 31.6228 35.2279 34.0235 32.0509C36.7885 28.3921 38.25 24.2154 38.25 19.9721V18.3402C39.031 18.2983 39.8038 18.1692 40.5519 17.9554V19.9721ZM36.8688 18.3252V19.9721C36.8688 23.9478 35.4947 27.8677 32.8948 31.308C30.6808 34.2379 27.5894 36.8042 23.9376 38.7467C20.2859 36.8042 17.1944 34.2379 14.9804 31.3079C12.3805 27.8678 11.0064 23.9478 11.0064 19.9721V10.7046C14.1648 10.2844 17.2328 9.40351 20.0982 8.09427C21.481 7.45746 22.8043 6.71398 24.0545 5.87158C25.2919 6.64766 26.5875 7.3397 27.9313 7.94233C27.7516 9.17715 27.8432 10.4332 28.2005 11.6339C28.5578 12.8346 29.1733 13.9548 30.0095 14.9263C30.8457 15.8978 31.8851 16.7002 33.0644 17.2845C34.2437 17.8689 35.5381 18.223 36.8687 18.3253L36.8688 18.3252ZM37.6754 17.0673C36.0037 17.0673 34.3695 16.6046 32.9795 15.7377C31.5895 14.8709 30.5061 13.6388 29.8664 12.1973C29.2266 10.7558 29.0592 9.16956 29.3854 7.63925C29.7115 6.10894 30.5165 4.70326 31.6986 3.59997C32.8807 2.49667 34.3868 1.74531 36.0264 1.4409C37.666 1.13649 39.3655 1.29271 40.91 1.88979C42.4545 2.48688 43.7746 3.49802 44.7034 4.79534C45.6321 6.09267 46.1279 7.61791 46.1279 9.1782C46.1254 11.2698 45.2341 13.275 43.6495 14.754C42.0649 16.233 39.9164 17.0649 37.6754 17.0673Z" fill="#F4F4F4"/>
</g>
<path d="M63.9929 17.605C63.2929 17.605 62.6629 17.485 62.1029 17.245C61.5429 16.995 61.1029 16.645 60.7829 16.195C60.4629 15.745 60.3029 15.22 60.3029 14.62H62.1329C62.1729 15.07 62.3479 15.44 62.6579 15.73C62.9779 16.02 63.4229 16.165 63.9929 16.165C64.5829 16.165 65.0429 16.025 65.3729 15.745C65.7029 15.455 65.8679 15.085 65.8679 14.635C65.8679 14.285 65.7629 14 65.5529 13.78C65.3529 13.56 65.0979 13.39 64.7879 13.27C64.4879 13.15 64.0679 13.02 63.5279 12.88C62.8479 12.7 62.2929 12.52 61.8629 12.34C61.4429 12.15 61.0829 11.86 60.7829 11.47C60.4829 11.08 60.3329 10.56 60.3329 9.91C60.3329 9.31 60.4829 8.785 60.7829 8.335C61.0829 7.885 61.5029 7.54 62.0429 7.3C62.5829 7.06 63.2079 6.94 63.9179 6.94C64.9279 6.94 65.7529 7.195 66.3929 7.705C67.0429 8.205 67.4029 8.895 67.4729 9.775H65.5829C65.5529 9.395 65.3729 9.07 65.0429 8.8C64.7129 8.53 64.2779 8.395 63.7379 8.395C63.2479 8.395 62.8479 8.52 62.5379 8.77C62.2279 9.02 62.0729 9.38 62.0729 9.85C62.0729 10.17 62.1679 10.435 62.3579 10.645C62.5579 10.845 62.8079 11.005 63.1079 11.125C63.4079 11.245 63.8179 11.375 64.3379 11.515C65.0279 11.705 65.5879 11.895 66.0179 12.085C66.4579 12.275 66.8279 12.57 67.1279 12.97C67.4379 13.36 67.5929 13.885 67.5929 14.545C67.5929 15.075 67.4479 15.575 67.1579 16.045C66.8779 16.515 66.4629 16.895 65.9129 17.185C65.3729 17.465 64.7329 17.605 63.9929 17.605ZM77.1856 13.165C77.1856 13.475 77.1656 13.755 77.1256 14.005H70.8106C70.8606 14.665 71.1056 15.195 71.5456 15.595C71.9856 15.995 72.5256 16.195 73.1656 16.195C74.0856 16.195 74.7356 15.81 75.1156 15.04H76.9606C76.7106 15.8 76.2556 16.425 75.5956 16.915C74.9456 17.395 74.1356 17.635 73.1656 17.635C72.3756 17.635 71.6656 17.46 71.0356 17.11C70.4156 16.75 69.9256 16.25 69.5656 15.61C69.2156 14.96 69.0406 14.21 69.0406 13.36C69.0406 12.51 69.2106 11.765 69.5506 11.125C69.9006 10.475 70.3856 9.975 71.0056 9.625C71.6356 9.275 72.3556 9.1 73.1656 9.1C73.9456 9.1 74.6406 9.27 75.2506 9.61C75.8606 9.95 76.3356 10.43 76.6756 11.05C77.0156 11.66 77.1856 12.365 77.1856 13.165ZM75.4006 12.625C75.3906 11.995 75.1656 11.49 74.7256 11.11C74.2856 10.73 73.7406 10.54 73.0906 10.54C72.5006 10.54 71.9956 10.73 71.5756 11.11C71.1556 11.48 70.9056 11.985 70.8256 12.625H75.4006ZM78.2984 13.36C78.2984 12.51 78.4684 11.765 78.8084 11.125C79.1584 10.475 79.6384 9.975 80.2484 9.625C80.8584 9.275 81.5584 9.1 82.3484 9.1C83.3484 9.1 84.1734 9.34 84.8234 9.82C85.4834 10.29 85.9284 10.965 86.1584 11.845H84.3134C84.1634 11.435 83.9234 11.115 83.5934 10.885C83.2634 10.655 82.8484 10.54 82.3484 10.54C81.6484 10.54 81.0884 10.79 80.6684 11.29C80.2584 11.78 80.0534 12.47 80.0534 13.36C80.0534 14.25 80.2584 14.945 80.6684 15.445C81.0884 15.945 81.6484 16.195 82.3484 16.195C83.3384 16.195 83.9934 15.76 84.3134 14.89H86.1584C85.9184 15.73 85.4684 16.4 84.8084 16.9C84.1484 17.39 83.3284 17.635 82.3484 17.635C81.5584 17.635 80.8584 17.46 80.2484 17.11C79.6384 16.75 79.1584 16.25 78.8084 15.61C78.4684 14.96 78.2984 14.21 78.2984 13.36ZM95.3475 9.235V17.5H93.6375V16.525C93.3675 16.865 93.0125 17.135 92.5725 17.335C92.1425 17.525 91.6825 17.62 91.1925 17.62C90.5425 17.62 89.9575 17.485 89.4375 17.215C88.9275 16.945 88.5225 16.545 88.2225 16.015C87.9325 15.485 87.7875 14.845 87.7875 14.095V9.235H89.4825V13.84C89.4825 14.58 89.6675 15.15 90.0375 15.55C90.4075 15.94 90.9125 16.135 91.5525 16.135C92.1925 16.135 92.6975 15.94 93.0675 15.55C93.4475 15.15 93.6375 14.58 93.6375 13.84V9.235H95.3475ZM99.3138 10.435C99.5638 10.015 99.8938 9.69 100.304 9.46C100.724 9.22 101.219 9.1 101.789 9.1V10.87H101.354C100.684 10.87 100.174 11.04 99.8238 11.38C99.4838 11.72 99.3138 12.31 99.3138 13.15V17.5H97.6038V9.235H99.3138V10.435ZM110.936 13.165C110.936 13.475 110.916 13.755 110.876 14.005H104.561C104.611 14.665 104.856 15.195 105.296 15.595C105.736 15.995 106.276 16.195 106.916 16.195C107.836 16.195 108.486 15.81 108.866 15.04H110.711C110.461 15.8 110.006 16.425 109.346 16.915C108.696 17.395 107.886 17.635 106.916 17.635C106.126 17.635 105.416 17.46 104.786 17.11C104.166 16.75 103.676 16.25 103.316 15.61C102.966 14.96 102.791 14.21 102.791 13.36C102.791 12.51 102.961 11.765 103.301 11.125C103.651 10.475 104.136 9.975 104.756 9.625C105.386 9.275 106.106 9.1 106.916 9.1C107.696 9.1 108.391 9.27 109.001 9.61C109.611 9.95 110.086 10.43 110.426 11.05C110.766 11.66 110.936 12.365 110.936 13.165ZM109.151 12.625C109.141 11.995 108.916 11.49 108.476 11.11C108.036 10.73 107.491 10.54 106.841 10.54C106.251 10.54 105.746 10.73 105.326 11.11C104.906 11.48 104.656 11.985 104.576 12.625H109.151ZM67.8479 29.18C67.8479 29.71 67.7229 30.21 67.4729 30.68C67.2229 31.15 66.8229 31.535 66.2729 31.835C65.7229 32.125 65.0179 32.27 64.1579 32.27H62.2679V36.5H60.5579V26.075H64.1579C64.9579 26.075 65.6329 26.215 66.1829 26.495C66.7429 26.765 67.1579 27.135 67.4279 27.605C67.7079 28.075 67.8479 28.6 67.8479 29.18ZM64.1579 30.875C64.8079 30.875 65.2929 30.73 65.6129 30.44C65.9329 30.14 66.0929 29.72 66.0929 29.18C66.0929 28.04 65.4479 27.47 64.1579 27.47H62.2679V30.875H64.1579ZM68.9088 32.33C68.9088 31.5 69.0788 30.765 69.4188 30.125C69.7688 29.485 70.2388 28.99 70.8288 28.64C71.4288 28.28 72.0888 28.1 72.8088 28.1C73.4588 28.1 74.0238 28.23 74.5038 28.49C74.9938 28.74 75.3838 29.055 75.6738 29.435V28.235H77.3988V36.5H75.6738V35.27C75.3838 35.66 74.9888 35.985 74.4888 36.245C73.9888 36.505 73.4188 36.635 72.7788 36.635C72.0688 36.635 71.4188 36.455 70.8288 36.095C70.2388 35.725 69.7688 35.215 69.4188 34.565C69.0788 33.905 68.9088 33.16 68.9088 32.33ZM75.6738 32.36C75.6738 31.79 75.5538 31.295 75.3138 30.875C75.0838 30.455 74.7788 30.135 74.3988 29.915C74.0188 29.695 73.6088 29.585 73.1688 29.585C72.7288 29.585 72.3188 29.695 71.9388 29.915C71.5588 30.125 71.2488 30.44 71.0088 30.86C70.7788 31.27 70.6638 31.76 70.6638 32.33C70.6638 32.9 70.7788 33.4 71.0088 33.83C71.2488 34.26 71.5588 34.59 71.9388 34.82C72.3288 35.04 72.7388 35.15 73.1688 35.15C73.6088 35.15 74.0188 35.04 74.3988 34.82C74.7788 34.6 75.0838 34.28 75.3138 33.86C75.5538 33.43 75.6738 32.93 75.6738 32.36ZM87.0848 28.235L82.0148 40.385H80.2448L81.9248 36.365L78.6698 28.235H80.5748L82.8998 34.535L85.3148 28.235H87.0848ZM98.3802 28.1C99.0302 28.1 99.6102 28.235 100.12 28.505C100.64 28.775 101.045 29.175 101.335 29.705C101.635 30.235 101.785 30.875 101.785 31.625V36.5H100.09V31.88C100.09 31.14 99.9052 30.575 99.5352 30.185C99.1652 29.785 98.6602 29.585 98.0202 29.585C97.3802 29.585 96.8702 29.785 96.4902 30.185C96.1202 30.575 95.9352 31.14 95.9352 31.88V36.5H94.2402V31.88C94.2402 31.14 94.0552 30.575 93.6852 30.185C93.3152 29.785 92.8102 29.585 92.1702 29.585C91.5302 29.585 91.0202 29.785 90.6402 30.185C90.2702 30.575 90.0852 31.14 90.0852 31.88V36.5H88.3752V28.235H90.0852V29.18C90.3652 28.84 90.7202 28.575 91.1502 28.385C91.5802 28.195 92.0402 28.1 92.5302 28.1C93.1902 28.1 93.7802 28.24 94.3002 28.52C94.8202 28.8 95.2202 29.205 95.5002 29.735C95.7502 29.235 96.1402 28.84 96.6702 28.55C97.2002 28.25 97.7702 28.1 98.3802 28.1ZM111.536 32.165C111.536 32.475 111.516 32.755 111.476 33.005H105.161C105.211 33.665 105.456 34.195 105.896 34.595C106.336 34.995 106.876 35.195 107.516 35.195C108.436 35.195 109.086 34.81 109.466 34.04H111.311C111.061 34.8 110.606 35.425 109.946 35.915C109.296 36.395 108.486 36.635 107.516 36.635C106.726 36.635 106.016 36.46 105.386 36.11C104.766 35.75 104.276 35.25 103.916 34.61C103.566 33.96 103.391 33.21 103.391 32.36C103.391 31.51 103.561 30.765 103.901 30.125C104.251 29.475 104.736 28.975 105.356 28.625C105.986 28.275 106.706 28.1 107.516 28.1C108.296 28.1 108.991 28.27 109.601 28.61C110.211 28.95 110.686 29.43 111.026 30.05C111.366 30.66 111.536 31.365 111.536 32.165ZM109.751 31.625C109.741 30.995 109.516 30.49 109.076 30.11C108.636 29.73 108.091 29.54 107.441 29.54C106.851 29.54 106.346 29.73 105.926 30.11C105.506 30.48 105.256 30.985 105.176 31.625H109.751ZM117.389 28.1C118.039 28.1 118.619 28.235 119.129 28.505C119.649 28.775 120.054 29.175 120.344 29.705C120.634 30.235 120.779 30.875 120.779 31.625V36.5H119.084V31.88C119.084 31.14 118.899 30.575 118.529 30.185C118.159 29.785 117.654 29.585 117.014 29.585C116.374 29.585 115.864 29.785 115.484 30.185C115.114 30.575 114.929 31.14 114.929 31.88V36.5H113.219V28.235H114.929V29.18C115.209 28.84 115.564 28.575 115.994 28.385C116.434 28.195 116.899 28.1 117.389 28.1ZM124.955 29.63V34.205C124.955 34.515 125.025 34.74 125.165 34.88C125.315 35.01 125.565 35.075 125.915 35.075H126.965V36.5H125.615C124.845 36.5 124.255 36.32 123.845 35.96C123.435 35.6 123.23 35.015 123.23 34.205V29.63H122.255V28.235H123.23V26.18H124.955V28.235H126.965V29.63H124.955Z" fill="#F4F4F4"/>
<defs>
<clipPath id="clip0_1_23845">
<rect width="47.1429" height="44" fill="white" transform="translate(0.365479)"/>
</clipPath>
</defs>
</svg>
