<svg width="39" height="33" viewBox="0 0 39 33" fill="none" xmlns="http://www.w3.org/2000/svg">
<g clip-path="url(#clip0_1_22764)">
<path d="M16.1299 11.2804V22.2222L17.2061 22.6132L25.6483 17.1423V16.3604L17.2061 10.8895L16.1299 11.2804ZM17.3197 12.304L24.0903 16.7513L17.3197 21.1987V12.304Z" fill="#FFF57A" stroke="#FFF57A" stroke-width="0.621508"/>
<path d="M19.7009 0.83606C14.6163 0.83606 9.83565 2.49225 6.24066 5.49876C2.64449 8.50377 0.664062 12.5005 0.664062 16.7514C0.664062 21.0023 2.64449 24.999 6.24066 28.0045C9.83565 31.0111 14.6163 32.6667 19.7009 32.6667C24.7855 32.6667 29.5661 31.0106 33.1617 28.0041C36.7573 24.999 38.7377 21.0023 38.7377 16.7514C38.7377 12.5005 36.7573 8.50377 33.1611 5.49826C29.5661 2.49175 24.7855 0.83606 19.7009 0.83606ZM32.3205 27.3013C28.9492 30.1198 24.4678 31.672 19.7009 31.672C14.9339 31.672 10.4526 30.1198 7.08185 27.3008C3.71055 24.4833 1.85386 20.7367 1.85386 16.7514C1.85386 12.7661 3.71055 9.01953 7.08185 6.20152C10.4526 3.38301 14.9339 1.83077 19.7009 1.83077C24.4678 1.83077 28.9492 3.38351 32.3205 6.20202C35.6918 9.01953 37.5479 12.7661 37.5479 16.7514C37.5479 20.7367 35.6918 24.4833 32.3205 27.3013Z" fill="#FFF57A" stroke="#FFF57A" stroke-width="0.621508"/>
</g>
<defs>
<clipPath id="clip0_1_22764">
<rect width="38.0737" height="31.8307" fill="white" transform="translate(0.664062 0.836182)"/>
</clipPath>
</defs>
</svg>
