<svg width="183" height="52" viewBox="0 0 183 52" fill="none" xmlns="http://www.w3.org/2000/svg">
<path d="M26.5728 48.286C14.2358 48.286 4.19897 38.2491 4.19897 25.9121C4.19897 13.5751 14.2358 3.53833 26.5728 3.53833C38.9098 3.53833 48.9458 13.5751 48.9458 25.9121C48.9458 38.2491 38.909 48.286 26.5728 48.286ZM26.5728 5.04958C15.0686 5.04958 5.70941 14.4088 5.70941 25.9121C5.70941 37.4163 15.0686 46.7747 26.5728 46.7747C38.0762 46.7747 47.4353 37.4155 47.4353 25.9121C47.4353 14.4088 38.0762 5.04958 26.5728 5.04958Z" fill="#F4F4F4"/>
<path d="M26.5759 8.83545C22.2973 8.83545 18.8149 12.3113 18.8149 16.5899V20.4217H20.4324V16.5899C20.4324 13.7421 23.1165 10.6328 25.9643 10.6328C28.7303 10.6328 30.1196 11.9713 31.0879 12.9396C32.0561 13.9079 32.6009 15.2206 32.6026 16.5899V20.4217H34.3304V16.5899C34.3304 12.3113 30.8546 8.83545 26.5759 8.83545Z" fill="#F4F4F4"/>
<path d="M26.5287 30.1849C27.7129 30.1849 28.6729 29.2249 28.6729 28.0407C28.6729 26.8565 27.7129 25.8965 26.5287 25.8965C25.3445 25.8965 24.3845 26.8565 24.3845 28.0407C24.3845 29.2249 25.3445 30.1849 26.5287 30.1849Z" fill="#F4F4F4"/>
<path d="M28.1824 32.7691H24.8723L25.697 29.0308H27.3578L28.1824 32.7691Z" fill="#F4F4F4"/>
<path d="M16.557 19.9851V36.4797L15.1416 35.9982V21.3095C15.1416 20.5742 15.7307 19.9851 16.466 19.9851H16.557ZM37.8884 21.3095V35.46L36.092 35.9983V19.9852L36.5697 19.9851C37.2993 19.9851 37.8884 20.5742 37.8884 21.3095ZM16.557 35.46V38.4817H16.466C15.7307 38.4817 15.1416 37.8926 15.1416 37.1622V35.46L16.557 35.46ZM37.8884 35.46V37.1622C37.8884 37.8926 37.2993 38.4817 36.5689 38.4817L36.092 38.4817V35.4601L37.8884 35.46Z" fill="#F4F4F4"/>
<path d="M16.4033 19.9851H36.1441V21.696H16.4033V19.9851Z" fill="#F4F4F4"/>
<path d="M16.4033 36.6319L36.1441 36.6318V38.5221H16.4033V36.6319Z" fill="#F4F4F4"/>
<path d="M72.8557 14.18C72.8557 14.71 72.7307 15.21 72.4807 15.68C72.2307 16.15 71.8307 16.535 71.2807 16.835C70.7307 17.125 70.0257 17.27 69.1657 17.27H67.2757V21.5H65.5657V11.075H69.1657C69.9657 11.075 70.6407 11.215 71.1907 11.495C71.7507 11.765 72.1657 12.135 72.4357 12.605C72.7157 13.075 72.8557 13.6 72.8557 14.18ZM69.1657 15.875C69.8157 15.875 70.3007 15.73 70.6207 15.44C70.9407 15.14 71.1007 14.72 71.1007 14.18C71.1007 13.04 70.4557 12.47 69.1657 12.47H67.2757V15.875H69.1657ZM76.1966 14.435C76.4466 14.015 76.7766 13.69 77.1866 13.46C77.6066 13.22 78.1016 13.1 78.6716 13.1V14.87H78.2366C77.5666 14.87 77.0566 15.04 76.7066 15.38C76.3666 15.72 76.1966 16.31 76.1966 17.15V21.5H74.4866V13.235H76.1966V14.435ZM81.1134 12.14C80.8034 12.14 80.5434 12.035 80.3334 11.825C80.1234 11.615 80.0184 11.355 80.0184 11.045C80.0184 10.735 80.1234 10.475 80.3334 10.265C80.5434 10.055 80.8034 9.95 81.1134 9.95C81.4134 9.95 81.6684 10.055 81.8784 10.265C82.0884 10.475 82.1934 10.735 82.1934 11.045C82.1934 11.355 82.0884 11.615 81.8784 11.825C81.6684 12.035 81.4134 12.14 81.1134 12.14ZM81.9534 13.235V21.5H80.2434V13.235H81.9534ZM87.3935 19.97L89.7335 13.235H91.5485L88.3985 21.5H86.3585L83.2235 13.235H85.0535L87.3935 19.97ZM92.2711 17.33C92.2711 16.5 92.4411 15.765 92.7811 15.125C93.1311 14.485 93.6011 13.99 94.1911 13.64C94.7911 13.28 95.4511 13.1 96.1711 13.1C96.8211 13.1 97.3861 13.23 97.8661 13.49C98.3561 13.74 98.7461 14.055 99.0361 14.435V13.235H100.761V21.5H99.0361V20.27C98.7461 20.66 98.3511 20.985 97.8511 21.245C97.3511 21.505 96.7811 21.635 96.1411 21.635C95.4311 21.635 94.7811 21.455 94.1911 21.095C93.6011 20.725 93.1311 20.215 92.7811 19.565C92.4411 18.905 92.2711 18.16 92.2711 17.33ZM99.0361 17.36C99.0361 16.79 98.9161 16.295 98.6761 15.875C98.4461 15.455 98.1411 15.135 97.7611 14.915C97.3811 14.695 96.9711 14.585 96.5311 14.585C96.0911 14.585 95.6811 14.695 95.3011 14.915C94.9211 15.125 94.6111 15.44 94.3711 15.86C94.1411 16.27 94.0261 16.76 94.0261 17.33C94.0261 17.9 94.1411 18.4 94.3711 18.83C94.6111 19.26 94.9211 19.59 95.3011 19.82C95.6911 20.04 96.1011 20.15 96.5311 20.15C96.9711 20.15 97.3811 20.04 97.7611 19.82C98.1411 19.6 98.4461 19.28 98.6761 18.86C98.9161 18.43 99.0361 17.93 99.0361 17.36ZM105.002 14.63V19.205C105.002 19.515 105.072 19.74 105.212 19.88C105.362 20.01 105.612 20.075 105.962 20.075H107.012V21.5H105.662C104.892 21.5 104.302 21.32 103.892 20.96C103.482 20.6 103.277 20.015 103.277 19.205V14.63H102.302V13.235H103.277V11.18H105.002V13.235H107.012V14.63H105.002ZM116.163 17.165C116.163 17.475 116.143 17.755 116.103 18.005H109.788C109.838 18.665 110.083 19.195 110.523 19.595C110.963 19.995 111.503 20.195 112.143 20.195C113.063 20.195 113.713 19.81 114.093 19.04H115.938C115.688 19.8 115.233 20.425 114.573 20.915C113.923 21.395 113.113 21.635 112.143 21.635C111.353 21.635 110.643 21.46 110.013 21.11C109.393 20.75 108.903 20.25 108.543 19.61C108.193 18.96 108.018 18.21 108.018 17.36C108.018 16.51 108.188 15.765 108.528 15.125C108.878 14.475 109.363 13.975 109.983 13.625C110.613 13.275 111.333 13.1 112.143 13.1C112.923 13.1 113.618 13.27 114.228 13.61C114.838 13.95 115.313 14.43 115.653 15.05C115.993 15.66 116.163 16.365 116.163 17.165ZM114.378 16.625C114.368 15.995 114.143 15.49 113.703 15.11C113.263 14.73 112.718 14.54 112.068 14.54C111.478 14.54 110.973 14.73 110.553 15.11C110.133 15.48 109.883 15.985 109.803 16.625H114.378ZM129.797 21.5L128.507 20.21C128.007 20.71 127.462 21.085 126.872 21.335C126.282 21.575 125.622 21.695 124.892 21.695C124.152 21.695 123.497 21.565 122.927 21.305C122.357 21.045 121.917 20.675 121.607 20.195C121.297 19.705 121.142 19.14 121.142 18.5C121.142 17.78 121.347 17.14 121.757 16.58C122.167 16.01 122.777 15.56 123.587 15.23C123.297 14.88 123.092 14.555 122.972 14.255C122.852 13.945 122.792 13.605 122.792 13.235C122.792 12.775 122.907 12.365 123.137 12.005C123.377 11.645 123.717 11.36 124.157 11.15C124.597 10.94 125.107 10.835 125.687 10.835C126.277 10.835 126.777 10.95 127.187 11.18C127.607 11.4 127.917 11.705 128.117 12.095C128.327 12.485 128.412 12.92 128.372 13.4H126.662C126.672 13.03 126.582 12.745 126.392 12.545C126.202 12.335 125.942 12.23 125.612 12.23C125.282 12.23 125.012 12.33 124.802 12.53C124.602 12.72 124.502 12.955 124.502 13.235C124.502 13.505 124.577 13.775 124.727 14.045C124.887 14.305 125.162 14.645 125.552 15.065L128.312 17.81L129.377 16.055H131.222L129.872 18.365L129.497 18.98L132.032 21.5H129.797ZM124.892 20.24C125.832 20.24 126.662 19.855 127.382 19.085L124.622 16.31C123.442 16.78 122.852 17.49 122.852 18.44C122.852 18.95 123.042 19.38 123.422 19.73C123.802 20.07 124.292 20.24 124.892 20.24ZM64.9957 35.265C64.9957 34.245 65.2307 33.33 65.7007 32.52C66.1807 31.71 66.8257 31.08 67.6357 30.63C68.4557 30.17 69.3507 29.94 70.3207 29.94C71.4307 29.94 72.4157 30.215 73.2757 30.765C74.1457 31.305 74.7757 32.075 75.1657 33.075H73.1107C72.8407 32.525 72.4657 32.115 71.9857 31.845C71.5057 31.575 70.9507 31.44 70.3207 31.44C69.6307 31.44 69.0157 31.595 68.4757 31.905C67.9357 32.215 67.5107 32.66 67.2007 33.24C66.9007 33.82 66.7507 34.495 66.7507 35.265C66.7507 36.035 66.9007 36.71 67.2007 37.29C67.5107 37.87 67.9357 38.32 68.4757 38.64C69.0157 38.95 69.6307 39.105 70.3207 39.105C70.9507 39.105 71.5057 38.97 71.9857 38.7C72.4657 38.43 72.8407 38.02 73.1107 37.47H75.1657C74.7757 38.47 74.1457 39.24 73.2757 39.78C72.4157 40.32 71.4307 40.59 70.3207 40.59C69.3407 40.59 68.4457 40.365 67.6357 39.915C66.8257 39.455 66.1807 38.82 65.7007 38.01C65.2307 37.2 64.9957 36.285 64.9957 35.265ZM80.7522 40.635C79.9722 40.635 79.2672 40.46 78.6372 40.11C78.0072 39.75 77.5122 39.25 77.1522 38.61C76.7922 37.96 76.6122 37.21 76.6122 36.36C76.6122 35.52 76.7972 34.775 77.1672 34.125C77.5372 33.475 78.0422 32.975 78.6822 32.625C79.3222 32.275 80.0372 32.1 80.8272 32.1C81.6172 32.1 82.3322 32.275 82.9722 32.625C83.6122 32.975 84.1172 33.475 84.4872 34.125C84.8572 34.775 85.0422 35.52 85.0422 36.36C85.0422 37.2 84.8522 37.945 84.4722 38.595C84.0922 39.245 83.5722 39.75 82.9122 40.11C82.2622 40.46 81.5422 40.635 80.7522 40.635ZM80.7522 39.15C81.1922 39.15 81.6022 39.045 81.9822 38.835C82.3722 38.625 82.6872 38.31 82.9272 37.89C83.1672 37.47 83.2872 36.96 83.2872 36.36C83.2872 35.76 83.1722 35.255 82.9422 34.845C82.7122 34.425 82.4072 34.11 82.0272 33.9C81.6472 33.69 81.2372 33.585 80.7972 33.585C80.3572 33.585 79.9472 33.69 79.5672 33.9C79.1972 34.11 78.9022 34.425 78.6822 34.845C78.4622 35.255 78.3522 35.76 78.3522 36.36C78.3522 37.25 78.5772 37.94 79.0272 38.43C79.4872 38.91 80.0622 39.15 80.7522 39.15ZM90.9027 32.1C91.5527 32.1 92.1327 32.235 92.6427 32.505C93.1627 32.775 93.5677 33.175 93.8577 33.705C94.1477 34.235 94.2927 34.875 94.2927 35.625V40.5H92.5977V35.88C92.5977 35.14 92.4127 34.575 92.0427 34.185C91.6727 33.785 91.1677 33.585 90.5277 33.585C89.8877 33.585 89.3777 33.785 88.9977 34.185C88.6277 34.575 88.4427 35.14 88.4427 35.88V40.5H86.7327V32.235H88.4427V33.18C88.7227 32.84 89.0777 32.575 89.5077 32.385C89.9477 32.195 90.4127 32.1 90.9027 32.1ZM99.9389 33.63H98.4089V40.5H96.6839V33.63H95.7089V32.235H96.6839V31.65C96.6839 30.7 96.9339 30.01 97.4339 29.58C97.9439 29.14 98.7389 28.92 99.8189 28.92V30.345C99.2989 30.345 98.9339 30.445 98.7239 30.645C98.5139 30.835 98.4089 31.17 98.4089 31.65V32.235H99.9389V33.63ZM102.324 31.14C102.014 31.14 101.754 31.035 101.544 30.825C101.334 30.615 101.229 30.355 101.229 30.045C101.229 29.735 101.334 29.475 101.544 29.265C101.754 29.055 102.014 28.95 102.324 28.95C102.624 28.95 102.879 29.055 103.089 29.265C103.299 29.475 103.404 29.735 103.404 30.045C103.404 30.355 103.299 30.615 103.089 30.825C102.879 31.035 102.624 31.14 102.324 31.14ZM103.164 32.235V40.5H101.454V32.235H103.164ZM104.839 36.33C104.839 35.5 105.009 34.765 105.349 34.125C105.699 33.485 106.169 32.99 106.759 32.64C107.359 32.28 108.024 32.1 108.754 32.1C109.294 32.1 109.824 32.22 110.344 32.46C110.874 32.69 111.294 33 111.604 33.39V29.4H113.329V40.5H111.604V39.255C111.324 39.655 110.934 39.985 110.434 40.245C109.944 40.505 109.379 40.635 108.739 40.635C108.019 40.635 107.359 40.455 106.759 40.095C106.169 39.725 105.699 39.215 105.349 38.565C105.009 37.905 104.839 37.16 104.839 36.33ZM111.604 36.36C111.604 35.79 111.484 35.295 111.244 34.875C111.014 34.455 110.709 34.135 110.329 33.915C109.949 33.695 109.539 33.585 109.099 33.585C108.659 33.585 108.249 33.695 107.869 33.915C107.489 34.125 107.179 34.44 106.939 34.86C106.709 35.27 106.594 35.76 106.594 36.33C106.594 36.9 106.709 37.4 106.939 37.83C107.179 38.26 107.489 38.59 107.869 38.82C108.259 39.04 108.669 39.15 109.099 39.15C109.539 39.15 109.949 39.04 110.329 38.82C110.709 38.6 111.014 38.28 111.244 37.86C111.484 37.43 111.604 36.93 111.604 36.36ZM123.15 36.165C123.15 36.475 123.13 36.755 123.09 37.005H116.775C116.825 37.665 117.07 38.195 117.51 38.595C117.95 38.995 118.49 39.195 119.13 39.195C120.05 39.195 120.7 38.81 121.08 38.04H122.925C122.675 38.8 122.22 39.425 121.56 39.915C120.91 40.395 120.1 40.635 119.13 40.635C118.34 40.635 117.63 40.46 117 40.11C116.38 39.75 115.89 39.25 115.53 38.61C115.18 37.96 115.005 37.21 115.005 36.36C115.005 35.51 115.175 34.765 115.515 34.125C115.865 33.475 116.35 32.975 116.97 32.625C117.6 32.275 118.32 32.1 119.13 32.1C119.91 32.1 120.605 32.27 121.215 32.61C121.825 32.95 122.3 33.43 122.64 34.05C122.98 34.66 123.15 35.365 123.15 36.165ZM121.365 35.625C121.355 34.995 121.13 34.49 120.69 34.11C120.25 33.73 119.705 33.54 119.055 33.54C118.465 33.54 117.96 33.73 117.54 34.11C117.12 34.48 116.87 34.985 116.79 35.625H121.365ZM129.003 32.1C129.653 32.1 130.233 32.235 130.743 32.505C131.263 32.775 131.668 33.175 131.958 33.705C132.248 34.235 132.393 34.875 132.393 35.625V40.5H130.698V35.88C130.698 35.14 130.513 34.575 130.143 34.185C129.773 33.785 129.268 33.585 128.628 33.585C127.988 33.585 127.478 33.785 127.098 34.185C126.728 34.575 126.543 35.14 126.543 35.88V40.5H124.833V32.235H126.543V33.18C126.823 32.84 127.178 32.575 127.608 32.385C128.048 32.195 128.513 32.1 129.003 32.1ZM136.569 33.63V38.205C136.569 38.515 136.639 38.74 136.779 38.88C136.929 39.01 137.179 39.075 137.529 39.075H138.579V40.5H137.229C136.459 40.5 135.869 40.32 135.459 39.96C135.049 39.6 134.844 39.015 134.844 38.205V33.63H133.869V32.235H134.844V30.18H136.569V32.235H138.579V33.63H136.569ZM141.026 31.14C140.716 31.14 140.456 31.035 140.246 30.825C140.036 30.615 139.931 30.355 139.931 30.045C139.931 29.735 140.036 29.475 140.246 29.265C140.456 29.055 140.716 28.95 141.026 28.95C141.326 28.95 141.581 29.055 141.791 29.265C142.001 29.475 142.106 29.735 142.106 30.045C142.106 30.355 142.001 30.615 141.791 30.825C141.581 31.035 141.326 31.14 141.026 31.14ZM141.866 32.235V40.5H140.156V32.235H141.866ZM143.541 36.33C143.541 35.5 143.711 34.765 144.051 34.125C144.401 33.485 144.871 32.99 145.461 32.64C146.061 32.28 146.721 32.1 147.441 32.1C148.091 32.1 148.656 32.23 149.136 32.49C149.626 32.74 150.016 33.055 150.306 33.435V32.235H152.031V40.5H150.306V39.27C150.016 39.66 149.621 39.985 149.121 40.245C148.621 40.505 148.051 40.635 147.411 40.635C146.701 40.635 146.051 40.455 145.461 40.095C144.871 39.725 144.401 39.215 144.051 38.565C143.711 37.905 143.541 37.16 143.541 36.33ZM150.306 36.36C150.306 35.79 150.186 35.295 149.946 34.875C149.716 34.455 149.411 34.135 149.031 33.915C148.651 33.695 148.241 33.585 147.801 33.585C147.361 33.585 146.951 33.695 146.571 33.915C146.191 34.125 145.881 34.44 145.641 34.86C145.411 35.27 145.296 35.76 145.296 36.33C145.296 36.9 145.411 37.4 145.641 37.83C145.881 38.26 146.191 38.59 146.571 38.82C146.961 39.04 147.371 39.15 147.801 39.15C148.241 39.15 148.651 39.04 149.031 38.82C149.411 38.6 149.716 38.28 149.946 37.86C150.186 37.43 150.306 36.93 150.306 36.36ZM155.987 29.4V40.5H154.277V29.4H155.987Z" fill="#F4F4F4"/>
</svg>
