<svg width="175" height="44" viewBox="0 0 175 44" fill="none" xmlns="http://www.w3.org/2000/svg">
<g clip-path="url(#clip0_1_23838)">
<path d="M30.6795 42.0171H6.13159V42.8644C6.13159 43.0329 6.39196 43.1946 6.85541 43.3137C7.31886 43.4329 7.94744 43.4998 8.60286 43.4998H33.5626" fill="#F4F4F4"/>
<mask id="path-2-outside-1_1_23838" maskUnits="userSpaceOnUse" x="-0.0461426" y="-0.499756" width="45" height="45" fill="black">
<rect fill="white" x="-0.0461426" y="-0.499756" width="45" height="45"/>
<path d="M9.61188 34.5536L6.91573 37.2499L6.13056 36.4646C6.07206 36.4061 6.00261 36.3597 5.92618 36.3281C5.84975 36.2964 5.76784 36.2801 5.68511 36.2801C5.60239 36.2801 5.52048 36.2964 5.44405 36.3281C5.36763 36.3598 5.29818 36.4062 5.23969 36.4647C5.1812 36.5232 5.1348 36.5926 5.10315 36.669C5.07149 36.7455 5.0552 36.8274 5.05521 36.9101C5.05521 36.9928 5.07151 37.0747 5.10317 37.1512C5.13483 37.2276 5.18124 37.297 5.23973 37.3555L6.47027 38.5861C6.58842 38.7042 6.74863 38.7705 6.91568 38.7705C7.08273 38.7705 7.24295 38.7042 7.36109 38.5861L10.5028 35.4445C10.6209 35.3263 10.6873 35.1661 10.6873 34.999C10.6873 34.832 10.6209 34.6717 10.5027 34.5536C10.3846 34.4355 10.2244 34.3691 10.0573 34.3691C9.89023 34.3691 9.73001 34.4355 9.61188 34.5536ZM13.8114 9.82251H31.1332C31.6342 9.82193 32.1145 9.62266 32.4688 9.2684C32.823 8.91415 33.0223 8.43385 33.0229 7.93286V6.16919C33.0223 5.6682 32.823 5.1879 32.4688 4.83364C32.1145 4.47939 31.6342 4.28012 31.1332 4.27954H13.8114C13.3104 4.28012 12.8301 4.47939 12.4759 4.83364C12.1216 5.1879 11.9224 5.6682 11.9218 6.16919V7.93286C11.9224 8.43385 12.1216 8.91415 12.4759 9.2684C12.8301 9.62266 13.3104 9.82193 13.8114 9.82251ZM13.1815 6.16919C13.1817 6.00219 13.2481 5.84208 13.3662 5.72399C13.4843 5.6059 13.6444 5.53948 13.8114 5.53931H31.1332C31.3002 5.53948 31.4603 5.6059 31.5784 5.72399C31.6965 5.84208 31.7629 6.00219 31.7631 6.16919V7.93286C31.7629 8.09986 31.6965 8.25997 31.5784 8.37806C31.4603 8.49615 31.3002 8.56256 31.1332 8.56274H13.8114C13.6444 8.56256 13.4843 8.49615 13.3662 8.37806C13.2481 8.25997 13.1817 8.09986 13.1815 7.93286V6.16919ZM33.0912 12.9719C33.0912 12.8049 33.0249 12.6447 32.9067 12.5265C32.7886 12.4084 32.6284 12.342 32.4613 12.342H12.4099C12.2428 12.342 12.0826 12.4084 11.9645 12.5265C11.8464 12.6447 11.78 12.8049 11.78 12.9719C11.78 13.139 11.8464 13.2992 11.9645 13.4173C12.0826 13.5354 12.2428 13.6018 12.4099 13.6018H32.4613C32.6284 13.6018 32.7886 13.5354 32.9067 13.4173C33.0249 13.2992 33.0912 13.139 33.0912 12.9719ZM42.9597 9.85241C42.7422 9.733 42.5032 9.65763 42.2565 9.63063C42.0098 9.60362 41.7602 9.62549 41.5219 9.69501C41.2837 9.76451 41.0615 9.8803 40.868 10.0357C40.6745 10.1912 40.5135 10.3832 40.3943 10.6009L39.7082 11.853L36.8702 17.0318V7.63892H41.5629C41.7299 7.63892 41.8902 7.57255 42.0083 7.45443C42.1264 7.3363 42.1928 7.17609 42.1928 7.00903V3.79126C42.1918 2.91873 41.8447 2.08221 41.2278 1.46524C40.6108 0.848267 39.7743 0.501222 38.9018 0.500244C38.8702 0.500244 38.8389 0.501756 38.8075 0.502596C38.7919 0.501504 38.7762 0.500244 38.7602 0.500244H11.1293C10.2943 0.501178 9.49379 0.83329 8.90336 1.42372C8.31294 2.01414 7.98083 2.81467 7.97989 3.64966L7.97956 29.6403C6.65097 29.6209 5.34487 29.9842 4.21708 30.6868C3.0893 31.3894 2.18746 32.4016 1.61917 33.6026C1.05088 34.8037 0.84014 36.1429 1.01209 37.4605C1.18404 38.778 1.73142 40.0183 2.58893 41.0333C3.44643 42.0483 4.57784 42.7951 5.84816 43.1847C7.11848 43.5743 8.47407 43.5902 9.75319 43.2305C11.0323 42.8708 12.1809 42.1507 13.062 41.1562C13.9431 40.1616 14.5194 38.9345 14.7222 37.6213H30.3198V40.2248C30.3198 41.0935 30.6649 41.9266 31.2792 42.5409C31.8934 43.1552 32.7265 43.5002 33.5952 43.5002C34.4639 43.5002 35.297 43.1552 35.9113 42.5409C36.5255 41.9266 36.8706 41.0935 36.8706 40.2248L36.8702 24.8959L43.0219 13.6695L43.7074 12.4182C43.8269 12.2007 43.9024 11.9617 43.9295 11.715C43.9566 11.4683 43.9348 11.2187 43.8653 10.9804C43.7959 10.7421 43.6802 10.5198 43.5248 10.3263C43.3694 10.1328 43.1774 9.97168 42.9597 9.85241ZM36.8705 3.79126C36.8705 3.25254 37.0845 2.73588 37.4655 2.35495C37.8464 1.97402 38.363 1.76001 38.9018 1.76001C39.4405 1.76001 39.9571 1.97402 40.3381 2.35495C40.719 2.73588 40.933 3.25254 40.933 3.79126V6.37915H36.8705V3.79126ZM12.8767 39.2313C12.439 40.0544 11.8051 40.7569 11.0311 41.2765C10.257 41.7961 9.36682 42.1168 8.43926 42.2102C7.5117 42.3036 6.57542 42.1668 5.71336 41.8119C4.8513 41.457 4.09007 40.895 3.49708 40.1757C2.9041 39.4563 2.49767 38.6018 2.31379 37.6879C2.12992 36.774 2.17428 35.8288 2.44293 34.9361C2.71159 34.0434 3.19626 33.2307 3.85401 32.5701C4.51175 31.9094 5.32228 31.4212 6.21378 31.1486C6.92543 30.929 7.67355 30.8527 8.41487 30.9241C9.15619 30.9955 9.876 31.2131 10.5327 31.5645C11.19 31.914 11.7721 32.3895 12.2456 32.964C12.7191 33.5384 13.0749 34.2005 13.2926 34.9124C13.5102 35.6244 13.5855 36.3722 13.5142 37.1132C13.4428 37.8543 13.2262 38.574 12.8767 39.2313ZM33.5951 42.2405C33.0607 42.2399 32.5484 42.0273 32.1705 41.6494C31.7927 41.2716 31.5801 40.7592 31.5795 40.2248V36.9915C31.5795 36.8244 31.5131 36.6642 31.395 36.5461C31.2769 36.4279 31.1167 36.3616 30.9496 36.3616C30.9355 36.3616 30.9216 36.3627 30.9076 36.3637C30.8937 36.3628 30.8799 36.3616 30.8656 36.3616H14.7978C14.7786 35.7451 14.6775 35.134 14.4972 34.5441C14.2334 33.6729 13.7995 32.8627 13.2205 32.1603C12.6415 31.4579 11.9289 30.8773 11.124 30.4522C10.5317 30.1367 9.89693 29.9086 9.23932 29.775L9.23966 3.64966C9.24024 3.14867 9.43951 2.66837 9.79376 2.31411C10.148 1.95986 10.6283 1.76059 11.1293 1.76001H36.3153C35.8585 2.33847 35.6102 3.05417 35.6107 3.79126V7.00089L35.6104 7.00903V19.3306L30.0215 29.5291C30.0159 29.5394 30.0114 29.5498 30.0065 29.5601C30.0031 29.5671 29.9994 29.5739 29.9963 29.5812C29.9775 29.6242 29.9637 29.6693 29.955 29.7155L29.9541 29.7194L29.3277 33.1708C28.1035 33.2782 26.8704 33.221 25.6614 33.0005C25.0925 32.8901 24.5301 32.7483 23.9768 32.576C23.2089 32.3481 22.5455 32.1517 21.6032 32.1829C20.2391 32.2286 18.8973 32.736 17.6152 33.6913C17.4833 33.7918 17.3964 33.9403 17.3733 34.1046C17.3502 34.2688 17.3929 34.4355 17.4919 34.5685C17.591 34.7015 17.7386 34.7901 17.9025 34.8149C18.0665 34.8398 18.2337 34.799 18.3678 34.7015C19.4401 33.9027 20.5428 33.4789 21.6454 33.4419C22.3838 33.4167 22.9014 33.571 23.6185 33.7837C24.2134 33.9689 24.818 34.1208 25.4297 34.2389C26.9158 34.5092 28.4339 34.5559 29.9338 34.3774C29.9416 34.3765 29.9489 34.3748 29.9565 34.3736C29.9664 34.3721 29.9764 34.3706 29.9863 34.3687C29.9971 34.3665 30.0078 34.3639 30.0184 34.3611C30.0579 34.3511 30.0964 34.3372 30.1333 34.3197C30.1404 34.3164 30.1475 34.3128 30.1545 34.3091C30.2005 34.2851 30.2434 34.2554 30.2821 34.2207C30.285 34.2182 30.288 34.2159 30.2908 34.2133L33.2118 31.5048L33.2172 31.4992C33.2309 31.4862 33.2439 31.4725 33.2563 31.4582C33.2591 31.4551 33.2622 31.4523 33.2649 31.449C33.2796 31.4315 33.2933 31.4133 33.3061 31.3943C33.31 31.3884 33.3134 31.3822 33.3171 31.3762C33.3234 31.3661 33.3302 31.3562 33.3359 31.3456L35.6104 27.1948L35.6107 40.2248C35.6101 40.7592 35.3976 41.2716 35.0197 41.6494C34.6418 42.0273 34.1295 42.2399 33.5951 42.2405ZM31.0375 30.8043L31.6051 31.1154L31.7145 31.1753L30.8197 32.0049L31.0375 30.8043ZM35.6874 24.4328L35.6857 24.436L32.5338 30.1878L31.9814 29.885L31.4289 29.5822L40.5101 13.0109L41.6145 13.6163L35.6874 24.4328ZM42.6032 11.8118L42.2198 12.5115L41.9718 12.3756L41.1156 11.9062L41.4991 11.2063C41.5664 11.0837 41.6726 10.987 41.8009 10.9315C41.9292 10.8759 42.0724 10.8646 42.2079 10.8994C42.3433 10.9342 42.4634 11.0131 42.549 11.1236C42.6347 11.2342 42.6811 11.3701 42.6811 11.5099C42.6813 11.6156 42.6545 11.7195 42.6032 11.8118Z"/>
</mask>
<path d="M9.61188 34.5536L6.91573 37.2499L6.13056 36.4646C6.07206 36.4061 6.00261 36.3597 5.92618 36.3281C5.84975 36.2964 5.76784 36.2801 5.68511 36.2801C5.60239 36.2801 5.52048 36.2964 5.44405 36.3281C5.36763 36.3598 5.29818 36.4062 5.23969 36.4647C5.1812 36.5232 5.1348 36.5926 5.10315 36.669C5.07149 36.7455 5.0552 36.8274 5.05521 36.9101C5.05521 36.9928 5.07151 37.0747 5.10317 37.1512C5.13483 37.2276 5.18124 37.297 5.23973 37.3555L6.47027 38.5861C6.58842 38.7042 6.74863 38.7705 6.91568 38.7705C7.08273 38.7705 7.24295 38.7042 7.36109 38.5861L10.5028 35.4445C10.6209 35.3263 10.6873 35.1661 10.6873 34.999C10.6873 34.832 10.6209 34.6717 10.5027 34.5536C10.3846 34.4355 10.2244 34.3691 10.0573 34.3691C9.89023 34.3691 9.73001 34.4355 9.61188 34.5536ZM13.8114 9.82251H31.1332C31.6342 9.82193 32.1145 9.62266 32.4688 9.2684C32.823 8.91415 33.0223 8.43385 33.0229 7.93286V6.16919C33.0223 5.6682 32.823 5.1879 32.4688 4.83364C32.1145 4.47939 31.6342 4.28012 31.1332 4.27954H13.8114C13.3104 4.28012 12.8301 4.47939 12.4759 4.83364C12.1216 5.1879 11.9224 5.6682 11.9218 6.16919V7.93286C11.9224 8.43385 12.1216 8.91415 12.4759 9.2684C12.8301 9.62266 13.3104 9.82193 13.8114 9.82251ZM13.1815 6.16919C13.1817 6.00219 13.2481 5.84208 13.3662 5.72399C13.4843 5.6059 13.6444 5.53948 13.8114 5.53931H31.1332C31.3002 5.53948 31.4603 5.6059 31.5784 5.72399C31.6965 5.84208 31.7629 6.00219 31.7631 6.16919V7.93286C31.7629 8.09986 31.6965 8.25997 31.5784 8.37806C31.4603 8.49615 31.3002 8.56256 31.1332 8.56274H13.8114C13.6444 8.56256 13.4843 8.49615 13.3662 8.37806C13.2481 8.25997 13.1817 8.09986 13.1815 7.93286V6.16919ZM33.0912 12.9719C33.0912 12.8049 33.0249 12.6447 32.9067 12.5265C32.7886 12.4084 32.6284 12.342 32.4613 12.342H12.4099C12.2428 12.342 12.0826 12.4084 11.9645 12.5265C11.8464 12.6447 11.78 12.8049 11.78 12.9719C11.78 13.139 11.8464 13.2992 11.9645 13.4173C12.0826 13.5354 12.2428 13.6018 12.4099 13.6018H32.4613C32.6284 13.6018 32.7886 13.5354 32.9067 13.4173C33.0249 13.2992 33.0912 13.139 33.0912 12.9719ZM42.9597 9.85241C42.7422 9.733 42.5032 9.65763 42.2565 9.63063C42.0098 9.60362 41.7602 9.62549 41.5219 9.69501C41.2837 9.76451 41.0615 9.8803 40.868 10.0357C40.6745 10.1912 40.5135 10.3832 40.3943 10.6009L39.7082 11.853L36.8702 17.0318V7.63892H41.5629C41.7299 7.63892 41.8902 7.57255 42.0083 7.45443C42.1264 7.3363 42.1928 7.17609 42.1928 7.00903V3.79126C42.1918 2.91873 41.8447 2.08221 41.2278 1.46524C40.6108 0.848267 39.7743 0.501222 38.9018 0.500244C38.8702 0.500244 38.8389 0.501756 38.8075 0.502596C38.7919 0.501504 38.7762 0.500244 38.7602 0.500244H11.1293C10.2943 0.501178 9.49379 0.83329 8.90336 1.42372C8.31294 2.01414 7.98083 2.81467 7.97989 3.64966L7.97956 29.6403C6.65097 29.6209 5.34487 29.9842 4.21708 30.6868C3.0893 31.3894 2.18746 32.4016 1.61917 33.6026C1.05088 34.8037 0.84014 36.1429 1.01209 37.4605C1.18404 38.778 1.73142 40.0183 2.58893 41.0333C3.44643 42.0483 4.57784 42.7951 5.84816 43.1847C7.11848 43.5743 8.47407 43.5902 9.75319 43.2305C11.0323 42.8708 12.1809 42.1507 13.062 41.1562C13.9431 40.1616 14.5194 38.9345 14.7222 37.6213H30.3198V40.2248C30.3198 41.0935 30.6649 41.9266 31.2792 42.5409C31.8934 43.1552 32.7265 43.5002 33.5952 43.5002C34.4639 43.5002 35.297 43.1552 35.9113 42.5409C36.5255 41.9266 36.8706 41.0935 36.8706 40.2248L36.8702 24.8959L43.0219 13.6695L43.7074 12.4182C43.8269 12.2007 43.9024 11.9617 43.9295 11.715C43.9566 11.4683 43.9348 11.2187 43.8653 10.9804C43.7959 10.7421 43.6802 10.5198 43.5248 10.3263C43.3694 10.1328 43.1774 9.97168 42.9597 9.85241ZM36.8705 3.79126C36.8705 3.25254 37.0845 2.73588 37.4655 2.35495C37.8464 1.97402 38.363 1.76001 38.9018 1.76001C39.4405 1.76001 39.9571 1.97402 40.3381 2.35495C40.719 2.73588 40.933 3.25254 40.933 3.79126V6.37915H36.8705V3.79126ZM12.8767 39.2313C12.439 40.0544 11.8051 40.7569 11.0311 41.2765C10.257 41.7961 9.36682 42.1168 8.43926 42.2102C7.5117 42.3036 6.57542 42.1668 5.71336 41.8119C4.8513 41.457 4.09007 40.895 3.49708 40.1757C2.9041 39.4563 2.49767 38.6018 2.31379 37.6879C2.12992 36.774 2.17428 35.8288 2.44293 34.9361C2.71159 34.0434 3.19626 33.2307 3.85401 32.5701C4.51175 31.9094 5.32228 31.4212 6.21378 31.1486C6.92543 30.929 7.67355 30.8527 8.41487 30.9241C9.15619 30.9955 9.876 31.2131 10.5327 31.5645C11.19 31.914 11.7721 32.3895 12.2456 32.964C12.7191 33.5384 13.0749 34.2005 13.2926 34.9124C13.5102 35.6244 13.5855 36.3722 13.5142 37.1132C13.4428 37.8543 13.2262 38.574 12.8767 39.2313ZM33.5951 42.2405C33.0607 42.2399 32.5484 42.0273 32.1705 41.6494C31.7927 41.2716 31.5801 40.7592 31.5795 40.2248V36.9915C31.5795 36.8244 31.5131 36.6642 31.395 36.5461C31.2769 36.4279 31.1167 36.3616 30.9496 36.3616C30.9355 36.3616 30.9216 36.3627 30.9076 36.3637C30.8937 36.3628 30.8799 36.3616 30.8656 36.3616H14.7978C14.7786 35.7451 14.6775 35.134 14.4972 34.5441C14.2334 33.6729 13.7995 32.8627 13.2205 32.1603C12.6415 31.4579 11.9289 30.8773 11.124 30.4522C10.5317 30.1367 9.89693 29.9086 9.23932 29.775L9.23966 3.64966C9.24024 3.14867 9.43951 2.66837 9.79376 2.31411C10.148 1.95986 10.6283 1.76059 11.1293 1.76001H36.3153C35.8585 2.33847 35.6102 3.05417 35.6107 3.79126V7.00089L35.6104 7.00903V19.3306L30.0215 29.5291C30.0159 29.5394 30.0114 29.5498 30.0065 29.5601C30.0031 29.5671 29.9994 29.5739 29.9963 29.5812C29.9775 29.6242 29.9637 29.6693 29.955 29.7155L29.9541 29.7194L29.3277 33.1708C28.1035 33.2782 26.8704 33.221 25.6614 33.0005C25.0925 32.8901 24.5301 32.7483 23.9768 32.576C23.2089 32.3481 22.5455 32.1517 21.6032 32.1829C20.2391 32.2286 18.8973 32.736 17.6152 33.6913C17.4833 33.7918 17.3964 33.9403 17.3733 34.1046C17.3502 34.2688 17.3929 34.4355 17.4919 34.5685C17.591 34.7015 17.7386 34.7901 17.9025 34.8149C18.0665 34.8398 18.2337 34.799 18.3678 34.7015C19.4401 33.9027 20.5428 33.4789 21.6454 33.4419C22.3838 33.4167 22.9014 33.571 23.6185 33.7837C24.2134 33.9689 24.818 34.1208 25.4297 34.2389C26.9158 34.5092 28.4339 34.5559 29.9338 34.3774C29.9416 34.3765 29.9489 34.3748 29.9565 34.3736C29.9664 34.3721 29.9764 34.3706 29.9863 34.3687C29.9971 34.3665 30.0078 34.3639 30.0184 34.3611C30.0579 34.3511 30.0964 34.3372 30.1333 34.3197C30.1404 34.3164 30.1475 34.3128 30.1545 34.3091C30.2005 34.2851 30.2434 34.2554 30.2821 34.2207C30.285 34.2182 30.288 34.2159 30.2908 34.2133L33.2118 31.5048L33.2172 31.4992C33.2309 31.4862 33.2439 31.4725 33.2563 31.4582C33.2591 31.4551 33.2622 31.4523 33.2649 31.449C33.2796 31.4315 33.2933 31.4133 33.3061 31.3943C33.31 31.3884 33.3134 31.3822 33.3171 31.3762C33.3234 31.3661 33.3302 31.3562 33.3359 31.3456L35.6104 27.1948L35.6107 40.2248C35.6101 40.7592 35.3976 41.2716 35.0197 41.6494C34.6418 42.0273 34.1295 42.2399 33.5951 42.2405ZM31.0375 30.8043L31.6051 31.1154L31.7145 31.1753L30.8197 32.0049L31.0375 30.8043ZM35.6874 24.4328L35.6857 24.436L32.5338 30.1878L31.9814 29.885L31.4289 29.5822L40.5101 13.0109L41.6145 13.6163L35.6874 24.4328ZM42.6032 11.8118L42.2198 12.5115L41.9718 12.3756L41.1156 11.9062L41.4991 11.2063C41.5664 11.0837 41.6726 10.987 41.8009 10.9315C41.9292 10.8759 42.0724 10.8646 42.2079 10.8994C42.3433 10.9342 42.4634 11.0131 42.549 11.1236C42.6347 11.2342 42.6811 11.3701 42.6811 11.5099C42.6813 11.6156 42.6545 11.7195 42.6032 11.8118Z" fill="#F4F4F4"/>
<path d="M9.61188 34.5536L6.91573 37.2499L6.13056 36.4646C6.07206 36.4061 6.00261 36.3597 5.92618 36.3281C5.84975 36.2964 5.76784 36.2801 5.68511 36.2801C5.60239 36.2801 5.52048 36.2964 5.44405 36.3281C5.36763 36.3598 5.29818 36.4062 5.23969 36.4647C5.1812 36.5232 5.1348 36.5926 5.10315 36.669C5.07149 36.7455 5.0552 36.8274 5.05521 36.9101C5.05521 36.9928 5.07151 37.0747 5.10317 37.1512C5.13483 37.2276 5.18124 37.297 5.23973 37.3555L6.47027 38.5861C6.58842 38.7042 6.74863 38.7705 6.91568 38.7705C7.08273 38.7705 7.24295 38.7042 7.36109 38.5861L10.5028 35.4445C10.6209 35.3263 10.6873 35.1661 10.6873 34.999C10.6873 34.832 10.6209 34.6717 10.5027 34.5536C10.3846 34.4355 10.2244 34.3691 10.0573 34.3691C9.89023 34.3691 9.73001 34.4355 9.61188 34.5536ZM13.8114 9.82251H31.1332C31.6342 9.82193 32.1145 9.62266 32.4688 9.2684C32.823 8.91415 33.0223 8.43385 33.0229 7.93286V6.16919C33.0223 5.6682 32.823 5.1879 32.4688 4.83364C32.1145 4.47939 31.6342 4.28012 31.1332 4.27954H13.8114C13.3104 4.28012 12.8301 4.47939 12.4759 4.83364C12.1216 5.1879 11.9224 5.6682 11.9218 6.16919V7.93286C11.9224 8.43385 12.1216 8.91415 12.4759 9.2684C12.8301 9.62266 13.3104 9.82193 13.8114 9.82251ZM13.1815 6.16919C13.1817 6.00219 13.2481 5.84208 13.3662 5.72399C13.4843 5.6059 13.6444 5.53948 13.8114 5.53931H31.1332C31.3002 5.53948 31.4603 5.6059 31.5784 5.72399C31.6965 5.84208 31.7629 6.00219 31.7631 6.16919V7.93286C31.7629 8.09986 31.6965 8.25997 31.5784 8.37806C31.4603 8.49615 31.3002 8.56256 31.1332 8.56274H13.8114C13.6444 8.56256 13.4843 8.49615 13.3662 8.37806C13.2481 8.25997 13.1817 8.09986 13.1815 7.93286V6.16919ZM33.0912 12.9719C33.0912 12.8049 33.0249 12.6447 32.9067 12.5265C32.7886 12.4084 32.6284 12.342 32.4613 12.342H12.4099C12.2428 12.342 12.0826 12.4084 11.9645 12.5265C11.8464 12.6447 11.78 12.8049 11.78 12.9719C11.78 13.139 11.8464 13.2992 11.9645 13.4173C12.0826 13.5354 12.2428 13.6018 12.4099 13.6018H32.4613C32.6284 13.6018 32.7886 13.5354 32.9067 13.4173C33.0249 13.2992 33.0912 13.139 33.0912 12.9719ZM42.9597 9.85241C42.7422 9.733 42.5032 9.65763 42.2565 9.63063C42.0098 9.60362 41.7602 9.62549 41.5219 9.69501C41.2837 9.76451 41.0615 9.8803 40.868 10.0357C40.6745 10.1912 40.5135 10.3832 40.3943 10.6009L39.7082 11.853L36.8702 17.0318V7.63892H41.5629C41.7299 7.63892 41.8902 7.57255 42.0083 7.45443C42.1264 7.3363 42.1928 7.17609 42.1928 7.00903V3.79126C42.1918 2.91873 41.8447 2.08221 41.2278 1.46524C40.6108 0.848267 39.7743 0.501222 38.9018 0.500244C38.8702 0.500244 38.8389 0.501756 38.8075 0.502596C38.7919 0.501504 38.7762 0.500244 38.7602 0.500244H11.1293C10.2943 0.501178 9.49379 0.83329 8.90336 1.42372C8.31294 2.01414 7.98083 2.81467 7.97989 3.64966L7.97956 29.6403C6.65097 29.6209 5.34487 29.9842 4.21708 30.6868C3.0893 31.3894 2.18746 32.4016 1.61917 33.6026C1.05088 34.8037 0.84014 36.1429 1.01209 37.4605C1.18404 38.778 1.73142 40.0183 2.58893 41.0333C3.44643 42.0483 4.57784 42.7951 5.84816 43.1847C7.11848 43.5743 8.47407 43.5902 9.75319 43.2305C11.0323 42.8708 12.1809 42.1507 13.062 41.1562C13.9431 40.1616 14.5194 38.9345 14.7222 37.6213H30.3198V40.2248C30.3198 41.0935 30.6649 41.9266 31.2792 42.5409C31.8934 43.1552 32.7265 43.5002 33.5952 43.5002C34.4639 43.5002 35.297 43.1552 35.9113 42.5409C36.5255 41.9266 36.8706 41.0935 36.8706 40.2248L36.8702 24.8959L43.0219 13.6695L43.7074 12.4182C43.8269 12.2007 43.9024 11.9617 43.9295 11.715C43.9566 11.4683 43.9348 11.2187 43.8653 10.9804C43.7959 10.7421 43.6802 10.5198 43.5248 10.3263C43.3694 10.1328 43.1774 9.97168 42.9597 9.85241ZM36.8705 3.79126C36.8705 3.25254 37.0845 2.73588 37.4655 2.35495C37.8464 1.97402 38.363 1.76001 38.9018 1.76001C39.4405 1.76001 39.9571 1.97402 40.3381 2.35495C40.719 2.73588 40.933 3.25254 40.933 3.79126V6.37915H36.8705V3.79126ZM12.8767 39.2313C12.439 40.0544 11.8051 40.7569 11.0311 41.2765C10.257 41.7961 9.36682 42.1168 8.43926 42.2102C7.5117 42.3036 6.57542 42.1668 5.71336 41.8119C4.8513 41.457 4.09007 40.895 3.49708 40.1757C2.9041 39.4563 2.49767 38.6018 2.31379 37.6879C2.12992 36.774 2.17428 35.8288 2.44293 34.9361C2.71159 34.0434 3.19626 33.2307 3.85401 32.5701C4.51175 31.9094 5.32228 31.4212 6.21378 31.1486C6.92543 30.929 7.67355 30.8527 8.41487 30.9241C9.15619 30.9955 9.876 31.2131 10.5327 31.5645C11.19 31.914 11.7721 32.3895 12.2456 32.964C12.7191 33.5384 13.0749 34.2005 13.2926 34.9124C13.5102 35.6244 13.5855 36.3722 13.5142 37.1132C13.4428 37.8543 13.2262 38.574 12.8767 39.2313ZM33.5951 42.2405C33.0607 42.2399 32.5484 42.0273 32.1705 41.6494C31.7927 41.2716 31.5801 40.7592 31.5795 40.2248V36.9915C31.5795 36.8244 31.5131 36.6642 31.395 36.5461C31.2769 36.4279 31.1167 36.3616 30.9496 36.3616C30.9355 36.3616 30.9216 36.3627 30.9076 36.3637C30.8937 36.3628 30.8799 36.3616 30.8656 36.3616H14.7978C14.7786 35.7451 14.6775 35.134 14.4972 34.5441C14.2334 33.6729 13.7995 32.8627 13.2205 32.1603C12.6415 31.4579 11.9289 30.8773 11.124 30.4522C10.5317 30.1367 9.89693 29.9086 9.23932 29.775L9.23966 3.64966C9.24024 3.14867 9.43951 2.66837 9.79376 2.31411C10.148 1.95986 10.6283 1.76059 11.1293 1.76001H36.3153C35.8585 2.33847 35.6102 3.05417 35.6107 3.79126V7.00089L35.6104 7.00903V19.3306L30.0215 29.5291C30.0159 29.5394 30.0114 29.5498 30.0065 29.5601C30.0031 29.5671 29.9994 29.5739 29.9963 29.5812C29.9775 29.6242 29.9637 29.6693 29.955 29.7155L29.9541 29.7194L29.3277 33.1708C28.1035 33.2782 26.8704 33.221 25.6614 33.0005C25.0925 32.8901 24.5301 32.7483 23.9768 32.576C23.2089 32.3481 22.5455 32.1517 21.6032 32.1829C20.2391 32.2286 18.8973 32.736 17.6152 33.6913C17.4833 33.7918 17.3964 33.9403 17.3733 34.1046C17.3502 34.2688 17.3929 34.4355 17.4919 34.5685C17.591 34.7015 17.7386 34.7901 17.9025 34.8149C18.0665 34.8398 18.2337 34.799 18.3678 34.7015C19.4401 33.9027 20.5428 33.4789 21.6454 33.4419C22.3838 33.4167 22.9014 33.571 23.6185 33.7837C24.2134 33.9689 24.818 34.1208 25.4297 34.2389C26.9158 34.5092 28.4339 34.5559 29.9338 34.3774C29.9416 34.3765 29.9489 34.3748 29.9565 34.3736C29.9664 34.3721 29.9764 34.3706 29.9863 34.3687C29.9971 34.3665 30.0078 34.3639 30.0184 34.3611C30.0579 34.3511 30.0964 34.3372 30.1333 34.3197C30.1404 34.3164 30.1475 34.3128 30.1545 34.3091C30.2005 34.2851 30.2434 34.2554 30.2821 34.2207C30.285 34.2182 30.288 34.2159 30.2908 34.2133L33.2118 31.5048L33.2172 31.4992C33.2309 31.4862 33.2439 31.4725 33.2563 31.4582C33.2591 31.4551 33.2622 31.4523 33.2649 31.449C33.2796 31.4315 33.2933 31.4133 33.3061 31.3943C33.31 31.3884 33.3134 31.3822 33.3171 31.3762C33.3234 31.3661 33.3302 31.3562 33.3359 31.3456L35.6104 27.1948L35.6107 40.2248C35.6101 40.7592 35.3976 41.2716 35.0197 41.6494C34.6418 42.0273 34.1295 42.2399 33.5951 42.2405ZM31.0375 30.8043L31.6051 31.1154L31.7145 31.1753L30.8197 32.0049L31.0375 30.8043ZM35.6874 24.4328L35.6857 24.436L32.5338 30.1878L31.9814 29.885L31.4289 29.5822L40.5101 13.0109L41.6145 13.6163L35.6874 24.4328ZM42.6032 11.8118L42.2198 12.5115L41.9718 12.3756L41.1156 11.9062L41.4991 11.2063C41.5664 11.0837 41.6726 10.987 41.8009 10.9315C41.9292 10.8759 42.0724 10.8646 42.2079 10.8994C42.3433 10.9342 42.4634 11.0131 42.549 11.1236C42.6347 11.2342 42.6811 11.3701 42.6811 11.5099C42.6813 11.6156 42.6545 11.7195 42.6032 11.8118Z" stroke="#F4F4F4" stroke-width="0.149057" mask="url(#path-2-outside-1_1_23838)"/>
</g>
<path d="M65.9755 7.075L62.0605 17.5H60.0805L56.1505 7.075H57.9805L61.0705 15.745L64.1755 7.075H65.9755ZM74.9805 13.165C74.9805 13.475 74.9605 13.755 74.9205 14.005H68.6055C68.6555 14.665 68.9005 15.195 69.3405 15.595C69.7805 15.995 70.3205 16.195 70.9605 16.195C71.8805 16.195 72.5305 15.81 72.9105 15.04H74.7555C74.5055 15.8 74.0505 16.425 73.3905 16.915C72.7405 17.395 71.9305 17.635 70.9605 17.635C70.1705 17.635 69.4605 17.46 68.8305 17.11C68.2105 16.75 67.7205 16.25 67.3605 15.61C67.0105 14.96 66.8355 14.21 66.8355 13.36C66.8355 12.51 67.0055 11.765 67.3455 11.125C67.6955 10.475 68.1805 9.975 68.8005 9.625C69.4305 9.275 70.1505 9.1 70.9605 9.1C71.7405 9.1 72.4355 9.27 73.0455 9.61C73.6555 9.95 74.1305 10.43 74.4705 11.05C74.8105 11.66 74.9805 12.365 74.9805 13.165ZM73.1955 12.625C73.1855 11.995 72.9605 11.49 72.5205 11.11C72.0805 10.73 71.5355 10.54 70.8855 10.54C70.2955 10.54 69.7905 10.73 69.3705 11.11C68.9505 11.48 68.7005 11.985 68.6205 12.625H73.1955ZM78.3733 10.435C78.6233 10.015 78.9533 9.69 79.3633 9.46C79.7833 9.22 80.2783 9.1 80.8483 9.1V10.87H80.4133C79.7433 10.87 79.2333 11.04 78.8833 11.38C78.5433 11.72 78.3733 12.31 78.3733 13.15V17.5H76.6633V9.235H78.3733V10.435ZM83.2902 8.14C82.9802 8.14 82.7202 8.035 82.5102 7.825C82.3002 7.615 82.1952 7.355 82.1952 7.045C82.1952 6.735 82.3002 6.475 82.5102 6.265C82.7202 6.055 82.9802 5.95 83.2902 5.95C83.5902 5.95 83.8452 6.055 84.0552 6.265C84.2652 6.475 84.3702 6.735 84.3702 7.045C84.3702 7.355 84.2652 7.615 84.0552 7.825C83.8452 8.035 83.5902 8.14 83.2902 8.14ZM84.1302 9.235V17.5H82.4202V9.235H84.1302ZM89.8402 10.63H88.3102V17.5H86.5852V10.63H85.6102V9.235H86.5852V8.65C86.5852 7.7 86.8352 7.01 87.3352 6.58C87.8452 6.14 88.6402 5.92 89.7202 5.92V7.345C89.2002 7.345 88.8352 7.445 88.6252 7.645C88.4152 7.835 88.3102 8.17 88.3102 8.65V9.235H89.8402V10.63ZM92.2257 8.14C91.9157 8.14 91.6557 8.035 91.4457 7.825C91.2357 7.615 91.1307 7.355 91.1307 7.045C91.1307 6.735 91.2357 6.475 91.4457 6.265C91.6557 6.055 91.9157 5.95 92.2257 5.95C92.5257 5.95 92.7807 6.055 92.9907 6.265C93.2007 6.475 93.3057 6.735 93.3057 7.045C93.3057 7.355 93.2007 7.615 92.9907 7.825C92.7807 8.035 92.5257 8.14 92.2257 8.14ZM93.0657 9.235V17.5H91.3557V9.235H93.0657ZM102.886 13.165C102.886 13.475 102.866 13.755 102.826 14.005H96.5108C96.5608 14.665 96.8058 15.195 97.2458 15.595C97.6858 15.995 98.2258 16.195 98.8658 16.195C99.7858 16.195 100.436 15.81 100.816 15.04H102.661C102.411 15.8 101.956 16.425 101.296 16.915C100.646 17.395 99.8358 17.635 98.8658 17.635C98.0758 17.635 97.3658 17.46 96.7358 17.11C96.1158 16.75 95.6258 16.25 95.2658 15.61C94.9158 14.96 94.7408 14.21 94.7408 13.36C94.7408 12.51 94.9108 11.765 95.2508 11.125C95.6008 10.475 96.0858 9.975 96.7058 9.625C97.3358 9.275 98.0558 9.1 98.8658 9.1C99.6458 9.1 100.341 9.27 100.951 9.61C101.561 9.95 102.036 10.43 102.376 11.05C102.716 11.66 102.886 12.365 102.886 13.165ZM101.101 12.625C101.091 11.995 100.866 11.49 100.426 11.11C99.9858 10.73 99.4408 10.54 98.7908 10.54C98.2008 10.54 97.6958 10.73 97.2758 11.11C96.8558 11.48 96.6058 11.985 96.5258 12.625H101.101ZM103.999 13.33C103.999 12.5 104.169 11.765 104.509 11.125C104.859 10.485 105.329 9.99 105.919 9.64C106.519 9.28 107.184 9.1 107.914 9.1C108.454 9.1 108.984 9.22 109.504 9.46C110.034 9.69 110.454 10 110.764 10.39V6.4H112.489V17.5H110.764V16.255C110.484 16.655 110.094 16.985 109.594 17.245C109.104 17.505 108.539 17.635 107.899 17.635C107.179 17.635 106.519 17.455 105.919 17.095C105.329 16.725 104.859 16.215 104.509 15.565C104.169 14.905 103.999 14.16 103.999 13.33ZM110.764 13.36C110.764 12.79 110.644 12.295 110.404 11.875C110.174 11.455 109.869 11.135 109.489 10.915C109.109 10.695 108.699 10.585 108.259 10.585C107.819 10.585 107.409 10.695 107.029 10.915C106.649 11.125 106.339 11.44 106.099 11.86C105.869 12.27 105.754 12.76 105.754 13.33C105.754 13.9 105.869 14.4 106.099 14.83C106.339 15.26 106.649 15.59 107.029 15.82C107.419 16.04 107.829 16.15 108.259 16.15C108.699 16.15 109.109 16.04 109.489 15.82C109.869 15.6 110.174 15.28 110.404 14.86C110.644 14.43 110.764 13.93 110.764 13.36ZM63.2755 34.37H58.9105L58.1605 36.5H56.3755L60.1105 26.06H62.0905L65.8255 36.5H64.0255L63.2755 34.37ZM62.7955 32.975L61.1005 28.13L59.3905 32.975H62.7955ZM70.4495 36.635C69.7995 36.635 69.2145 36.52 68.6945 36.29C68.1845 36.05 67.7795 35.73 67.4795 35.33C67.1795 34.92 67.0195 34.465 66.9995 33.965H68.7695C68.7995 34.315 68.9645 34.61 69.2645 34.85C69.5745 35.08 69.9595 35.195 70.4195 35.195C70.8995 35.195 71.2695 35.105 71.5295 34.925C71.7995 34.735 71.9345 34.495 71.9345 34.205C71.9345 33.895 71.7845 33.665 71.4845 33.515C71.1945 33.365 70.7295 33.2 70.0895 33.02C69.4695 32.85 68.9645 32.685 68.5745 32.525C68.1845 32.365 67.8445 32.12 67.5545 31.79C67.2745 31.46 67.1345 31.025 67.1345 30.485C67.1345 30.045 67.2645 29.645 67.5245 29.285C67.7845 28.915 68.1545 28.625 68.6345 28.415C69.1245 28.205 69.6845 28.1 70.3145 28.1C71.2545 28.1 72.0095 28.34 72.5795 28.82C73.1595 29.29 73.4695 29.935 73.5095 30.755H71.7995C71.7695 30.385 71.6195 30.09 71.3495 29.87C71.0795 29.65 70.7145 29.54 70.2545 29.54C69.8045 29.54 69.4595 29.625 69.2195 29.795C68.9795 29.965 68.8595 30.19 68.8595 30.47C68.8595 30.69 68.9395 30.875 69.0995 31.025C69.2595 31.175 69.4545 31.295 69.6845 31.385C69.9145 31.465 70.2545 31.57 70.7045 31.7C71.3045 31.86 71.7945 32.025 72.1745 32.195C72.5645 32.355 72.8995 32.595 73.1795 32.915C73.4595 33.235 73.6045 33.66 73.6145 34.19C73.6145 34.66 73.4845 35.08 73.2245 35.45C72.9645 35.82 72.5945 36.11 72.1145 36.32C71.6445 36.53 71.0895 36.635 70.4495 36.635ZM77.4572 29.63V34.205C77.4572 34.515 77.5272 34.74 77.6672 34.88C77.8172 35.01 78.0672 35.075 78.4172 35.075H79.4672V36.5H78.1172C77.3472 36.5 76.7572 36.32 76.3472 35.96C75.9372 35.6 75.7322 35.015 75.7322 34.205V29.63H74.7572V28.235H75.7322V26.18H77.4572V28.235H79.4672V29.63H77.4572ZM82.7532 29.435C83.0032 29.015 83.3332 28.69 83.7432 28.46C84.1632 28.22 84.6582 28.1 85.2282 28.1V29.87H84.7932C84.1232 29.87 83.6132 30.04 83.2632 30.38C82.9232 30.72 82.7532 31.31 82.7532 32.15V36.5H81.0432V28.235H82.7532V29.435ZM90.385 36.635C89.605 36.635 88.9 36.46 88.27 36.11C87.64 35.75 87.145 35.25 86.785 34.61C86.425 33.96 86.245 33.21 86.245 32.36C86.245 31.52 86.43 30.775 86.8 30.125C87.17 29.475 87.675 28.975 88.315 28.625C88.955 28.275 89.67 28.1 90.46 28.1C91.25 28.1 91.965 28.275 92.605 28.625C93.245 28.975 93.75 29.475 94.12 30.125C94.49 30.775 94.675 31.52 94.675 32.36C94.675 33.2 94.485 33.945 94.105 34.595C93.725 35.245 93.205 35.75 92.545 36.11C91.895 36.46 91.175 36.635 90.385 36.635ZM90.385 35.15C90.825 35.15 91.235 35.045 91.615 34.835C92.005 34.625 92.32 34.31 92.56 33.89C92.8 33.47 92.92 32.96 92.92 32.36C92.92 31.76 92.805 31.255 92.575 30.845C92.345 30.425 92.04 30.11 91.66 29.9C91.28 29.69 90.87 29.585 90.43 29.585C89.99 29.585 89.58 29.69 89.2 29.9C88.83 30.11 88.535 30.425 88.315 30.845C88.095 31.255 87.985 31.76 87.985 32.36C87.985 33.25 88.21 33.94 88.66 34.43C89.12 34.91 89.695 35.15 90.385 35.15ZM98.0755 25.4V36.5H96.3655V25.4H98.0755ZM103.906 36.635C103.126 36.635 102.421 36.46 101.791 36.11C101.161 35.75 100.666 35.25 100.306 34.61C99.9456 33.96 99.7656 33.21 99.7656 32.36C99.7656 31.52 99.9506 30.775 100.321 30.125C100.691 29.475 101.196 28.975 101.836 28.625C102.476 28.275 103.191 28.1 103.981 28.1C104.771 28.1 105.486 28.275 106.126 28.625C106.766 28.975 107.271 29.475 107.641 30.125C108.011 30.775 108.196 31.52 108.196 32.36C108.196 33.2 108.006 33.945 107.626 34.595C107.246 35.245 106.726 35.75 106.066 36.11C105.416 36.46 104.696 36.635 103.906 36.635ZM103.906 35.15C104.346 35.15 104.756 35.045 105.136 34.835C105.526 34.625 105.841 34.31 106.081 33.89C106.321 33.47 106.441 32.96 106.441 32.36C106.441 31.76 106.326 31.255 106.096 30.845C105.866 30.425 105.561 30.11 105.181 29.9C104.801 29.69 104.391 29.585 103.951 29.585C103.511 29.585 103.101 29.69 102.721 29.9C102.351 30.11 102.056 30.425 101.836 30.845C101.616 31.255 101.506 31.76 101.506 32.36C101.506 33.25 101.731 33.94 102.181 34.43C102.641 34.91 103.216 35.15 103.906 35.15ZM113.216 28.1C113.856 28.1 114.421 28.23 114.911 28.49C115.411 28.74 115.801 29.055 116.081 29.435V28.235H117.806V36.635C117.806 37.395 117.646 38.07 117.326 38.66C117.006 39.26 116.541 39.73 115.931 40.07C115.331 40.41 114.611 40.58 113.771 40.58C112.651 40.58 111.721 40.315 110.981 39.785C110.241 39.265 109.821 38.555 109.721 37.655H111.416C111.546 38.085 111.821 38.43 112.241 38.69C112.671 38.96 113.181 39.095 113.771 39.095C114.461 39.095 115.016 38.885 115.436 38.465C115.866 38.045 116.081 37.435 116.081 36.635V35.255C115.791 35.645 115.396 35.975 114.896 36.245C114.406 36.505 113.846 36.635 113.216 36.635C112.496 36.635 111.836 36.455 111.236 36.095C110.646 35.725 110.176 35.215 109.826 34.565C109.486 33.905 109.316 33.16 109.316 32.33C109.316 31.5 109.486 30.765 109.826 30.125C110.176 29.485 110.646 28.99 111.236 28.64C111.836 28.28 112.496 28.1 113.216 28.1ZM116.081 32.36C116.081 31.79 115.961 31.295 115.721 30.875C115.491 30.455 115.186 30.135 114.806 29.915C114.426 29.695 114.016 29.585 113.576 29.585C113.136 29.585 112.726 29.695 112.346 29.915C111.966 30.125 111.656 30.44 111.416 30.86C111.186 31.27 111.071 31.76 111.071 32.33C111.071 32.9 111.186 33.4 111.416 33.83C111.656 34.26 111.966 34.59 112.346 34.82C112.736 35.04 113.146 35.15 113.576 35.15C114.016 35.15 114.426 35.04 114.806 34.82C115.186 34.6 115.491 34.28 115.721 33.86C115.961 33.43 116.081 32.93 116.081 32.36ZM127.627 32.165C127.627 32.475 127.607 32.755 127.567 33.005H121.252C121.302 33.665 121.547 34.195 121.987 34.595C122.427 34.995 122.967 35.195 123.607 35.195C124.527 35.195 125.177 34.81 125.557 34.04H127.402C127.152 34.8 126.697 35.425 126.037 35.915C125.387 36.395 124.577 36.635 123.607 36.635C122.817 36.635 122.107 36.46 121.477 36.11C120.857 35.75 120.367 35.25 120.007 34.61C119.657 33.96 119.482 33.21 119.482 32.36C119.482 31.51 119.652 30.765 119.992 30.125C120.342 29.475 120.827 28.975 121.447 28.625C122.077 28.275 122.797 28.1 123.607 28.1C124.387 28.1 125.082 28.27 125.692 28.61C126.302 28.95 126.777 29.43 127.117 30.05C127.457 30.66 127.627 31.365 127.627 32.165ZM125.842 31.625C125.832 30.995 125.607 30.49 125.167 30.11C124.727 29.73 124.182 29.54 123.532 29.54C122.942 29.54 122.437 29.73 122.017 30.11C121.597 30.48 121.347 30.985 121.267 31.625H125.842ZM131.02 29.435C131.27 29.015 131.6 28.69 132.01 28.46C132.43 28.22 132.925 28.1 133.495 28.1V29.87H133.06C132.39 29.87 131.88 30.04 131.53 30.38C131.19 30.72 131.02 31.31 131.02 32.15V36.5H129.31V28.235H131.02V29.435Z" fill="#F4F4F4"/>
<defs>
<clipPath id="clip0_1_23838">
<rect width="43" height="43" fill="white" transform="translate(0.940918 0.5)"/>
</clipPath>
</defs>
</svg>
